<svg preserveAspectRatio="xMidYMid meet" width="100%" height="100%" overflow="visible" style="display: block;" viewBox="0 0 116 116" fill="none" xmlns="http://www.w3.org/2000/svg">
<g id="Group">
<path id="Vector" d="M116 58C116 90.0282 90.0282 116 58 116C25.9718 116 0 90.0282 0 58C0 25.9718 25.9718 0 58 0C90.0282 0 116 25.9627 116 58Z" fill="var(--fill-0, #32A7FF)"/>
<path id="Vector_2" d="M115.809 62.6287C115.873 61.8467 115.918 61.0555 115.945 60.2643L108.934 50.9341L115.618 51.4343C115.564 50.916 115.491 50.3976 115.427 49.8884L107.716 49.3155L105.124 45.8689L114.272 43.9592C114.145 43.4682 114.018 42.968 113.881 42.477L104.105 44.523L100.15 39.2578L86.518 7.50235C85.8087 7.10223 85.0812 6.71119 84.3537 6.33835L96.2756 34.1107L86.7727 21.4704L82.8351 5.59266C82.2531 5.31076 81.662 5.04704 81.0618 4.79241L84.4265 18.3512L71.9407 1.69144C71.1769 1.50047 70.413 1.32769 69.64 1.1731L85.3904 22.1342L91.5924 47.1511L88.1276 47.8786L2.38257 41.513C2.23706 42.0132 2.09156 42.5133 1.96425 43.0135L82.7259 48.9972L0.572907 66.1662C0.645657 66.6754 0.718407 67.1756 0.809345 67.6758L88.2368 49.4064L92.2289 49.7065L103.278 94.2477C103.687 93.7385 104.087 93.2383 104.469 92.7109L93.8294 49.8247L103.341 50.534L113.617 74.4961C113.845 73.714 114.063 72.9229 114.263 72.1317L105.051 50.6613L106.915 50.7977L115.809 62.6378V62.6287ZM87.7366 25.2534L98.8401 40.0307L101.041 45.1687L93.0928 46.8329L87.7366 25.2534ZM93.6385 48.2788L101.65 46.6055L102.659 48.9517L93.6385 48.2788ZM104.378 49.0699L103.178 46.2781L103.487 46.2145L105.706 49.17L104.378 49.0699Z" fill="var(--fill-0, #62C6FF)"/>
<g id="Group_2">
<path id="Vector_3" d="M19.7971 17.1417H25.9081C30.5732 17.1417 33.2468 19.0969 33.2468 22.9981C33.2468 24.9806 32.2738 26.6174 30.4459 27.7269C32.8376 29.2364 33.7833 30.5005 33.7833 33.3377C33.7833 37.8482 30.7551 39.8943 26.1537 39.8943H19.788V17.1508L19.7971 17.1417ZM24.1439 26.1537H25.6535C27.6087 26.1537 28.9 25.0169 28.9 23.471C28.9 21.7977 27.9269 20.7338 25.8717 20.7338H24.1348V26.1537H24.1439ZM24.1439 36.2932H25.9718C28.2452 36.2932 29.4365 34.9655 29.4365 32.9831C29.4365 30.8097 27.9269 29.7366 25.6535 29.7366H24.1439V36.2932Z" fill="var(--fill-0, #FDFDFD)"/>
<path id="Vector_4" d="M40.6218 17.1417H36.275V39.8852H40.6218V17.1417Z" fill="var(--fill-0, #FDFDFD)"/>
<path id="Vector_5" d="M43.9592 39.8852V17.1417H48.306V26.5265H48.3697L54.0078 17.1417H58.7639L52.9075 26.3082L59.4277 39.8852H54.5444L50.0066 30.3459L48.306 32.9285V39.8852H43.9592Z" fill="var(--fill-0, #FDFDFD)"/>
<path id="Vector_6" d="M61.1646 39.8852V17.1417H73.0684V20.9884H65.5114V26.2173H71.2769V30.0549H65.5114V36.0477H73.3866V39.8852H61.1646Z" fill="var(--fill-0, #FDFDFD)"/>
<path id="Vector_7" d="M38.0119 42.7316L37.1571 46.5782H32.0828L27.8906 65.4751H23.5437L27.736 46.5782H22.6616L23.5165 42.7316H38.0119Z" fill="var(--fill-0, #FDFDFD)"/>
<path id="Vector_8" d="M37.2662 50.043C38.5121 44.4321 41.9222 42.4133 46.1417 42.4133C50.3612 42.4133 52.8802 44.4321 51.6344 50.043L49.8338 58.1728C48.588 63.7836 45.1778 65.7934 40.9583 65.7934C36.7388 65.7934 34.2198 63.7745 35.4657 58.1728L37.2662 50.043ZM39.6852 58.7366C39.1304 61.2556 40.0762 61.9467 41.8131 61.9467C43.55 61.9467 44.805 61.2556 45.3597 58.7366L47.4149 49.4701C47.9696 46.9511 47.0238 46.26 45.2869 46.26C43.55 46.26 42.2951 46.9511 41.7404 49.4701L39.6852 58.7366Z" fill="var(--fill-0, #FDFDFD)"/>
<path id="Vector_9" d="M18.5695 68.0577H22.598L25.6535 82.926H25.7172L28.8363 68.0577H33.0285L36.175 82.926H36.2386L39.2669 68.0577H43.3318L38.3484 90.8012H34.1653L30.9824 75.2418H30.9188L27.4813 90.8012H23.3255L18.5695 68.0577Z" fill="var(--fill-0, #FDFDFD)"/>
<path id="Vector_10" d="M44.4321 75.3691C44.4321 69.7582 47.3967 67.7394 51.6162 67.7394C55.8357 67.7394 58.8003 69.7582 58.8003 75.3691V83.4989C58.8003 89.1097 55.8357 91.1286 51.6162 91.1286C47.3967 91.1286 44.4321 89.1097 44.4321 83.4989V75.3691ZM48.7789 84.0627C48.7789 86.5817 49.8793 87.2728 51.6162 87.2728C53.3531 87.2728 54.4534 86.5817 54.4534 84.0627V74.7962C54.4534 72.2772 53.3531 71.5861 51.6162 71.5861C49.8793 71.5861 48.7789 72.2772 48.7789 74.7962V84.0627Z" fill="var(--fill-0, #FDFDFD)"/>
<path id="Vector_11" d="M71.9953 90.8012L68.2123 81.5347H66.1298V90.8012H61.783V68.0577H68.085C73.3139 68.0577 75.8056 70.5767 75.8056 74.8598C75.8056 77.6971 74.7962 79.7432 72.3681 80.6526L76.6513 90.8012H71.9862H71.9953ZM66.1389 77.9517H68.376C70.2948 77.9517 71.4588 77.006 71.4588 74.8053C71.4588 72.6046 70.2948 71.6588 68.376 71.6588H66.1389V77.9608V77.9517Z" fill="var(--fill-0, #FDFDFD)"/>
<path id="Vector_12" d="M78.8065 90.8012V68.0577H83.1534V77.4425H83.2079L88.8551 68.0577H93.6112L87.7548 77.2242L94.2659 90.8012H89.3917L84.8539 81.2527L83.1534 83.8354V90.8012H78.8065Z" fill="var(--fill-0, #FDFDFD)"/>
</g>
<g id="Group_3">
<path id="Vector_13" d="M77.3971 96.5752C77.3971 96.5752 75.9876 99.4125 75.8876 99.6125C75.8694 99.3761 75.6784 96.5752 75.6784 96.5752H74.478L74.769 100.722H76.5332L78.6248 96.5752H77.3971Z" fill="var(--fill-0, #FDFDFD)"/>
<path id="Vector_14" d="M83.2353 97.5573L83.4444 96.5752H80.4253L79.5432 100.722H82.6078L82.817 99.7307H80.9346C80.9527 99.6307 81.0619 99.1124 81.0801 99.0487H82.8079L82.9897 98.1939H81.2619C81.2801 98.0939 81.3802 97.621 81.3983 97.5573H83.2353Z" fill="var(--fill-0, #FDFDFD)"/>
<path id="Vector_15" d="M86.1998 99.6853C86.227 99.567 86.8636 96.5752 86.8636 96.5752H85.6814L84.7993 100.731H87.6729L87.8912 99.6944H86.1998V99.6853Z" fill="var(--fill-0, #FDFDFD)"/>
<path id="Vector_16" d="M90.6648 99.1126L90.8558 98.2032C90.9922 97.6485 91.1468 97.5849 91.7106 97.5849C92.0107 97.5849 92.1835 97.6031 92.2653 97.7031C92.329 97.7849 92.3381 97.9304 92.2835 98.1851L92.0926 99.0944C91.9743 99.6673 91.7834 99.7219 91.2378 99.7219C90.9468 99.7219 90.7649 99.7037 90.6921 99.6128C90.6285 99.54 90.6194 99.3854 90.6648 99.1217M93.3748 96.9665C93.1383 96.6664 92.6928 96.5391 91.9107 96.5391C90.7649 96.5391 89.9373 96.8028 89.6736 98.0668L89.4281 99.2126C89.319 99.7128 89.3644 100.086 89.5736 100.331C89.8191 100.631 90.2556 100.759 91.0377 100.759C92.1835 100.759 93.011 100.504 93.2748 99.2399L93.5203 98.0941C93.6294 97.594 93.5839 97.2211 93.3748 96.9756" fill="var(--fill-0, #FDFDFD)"/>
<path id="Vector_17" d="M57.809 98.7038C58.2455 98.6856 58.3183 98.6401 58.4365 98.1036C58.5274 97.6762 58.4911 97.5489 58.0546 97.5489H57.2998L57.0542 98.7129H57.809V98.7038ZM55.5174 100.732L56.3995 96.585H58.482C59.5096 96.585 59.8006 97.0215 59.5732 98.1036C59.3277 99.2676 58.9821 99.6677 57.8272 99.6677H56.8451L56.6177 100.732H55.5083H55.5174Z" fill="var(--fill-0, #FDFDFD)"/>
<path id="Vector_18" d="M63.3926 98.6674C63.8655 98.6674 63.8928 98.4947 63.9928 98.0218C64.0747 97.6489 63.9928 97.5489 63.6382 97.5489H62.7834L62.5469 98.6674H63.4017H63.3926ZM61.874 96.585H64.011C64.9659 96.6031 65.3933 96.8032 65.175 97.8399C65.0295 98.531 64.9386 98.9311 64.1201 99.113V99.1585C64.5566 99.1767 64.8022 99.4222 64.7021 99.8951L64.5203 100.732H63.4199L63.5472 100.15C63.62 99.8405 63.5381 99.6314 63.2017 99.6314H62.3468L62.1104 100.732H61.001L61.8831 96.585H61.874Z" fill="var(--fill-0, #FDFDFD)"/>
<path id="Vector_19" d="M69.549 99.1214L69.7491 98.1847C69.8764 97.5754 69.6854 97.5118 69.1125 97.5118C68.5396 97.5118 68.3396 97.5754 68.1941 98.1847L67.994 99.1214C67.8758 99.7398 68.0577 99.8034 68.6306 99.8034C69.2035 99.8034 69.4217 99.7489 69.5581 99.1214M66.8209 99.2396L67.0664 98.0665C67.3392 96.7843 68.185 96.5479 69.3035 96.5479C70.422 96.5479 71.1677 96.7934 70.8949 98.0665L70.6494 99.2396C70.3766 100.513 69.5308 100.758 68.4032 100.758C67.2756 100.758 66.539 100.513 66.8118 99.2396" fill="var(--fill-0, #FDFDFD)"/>
<path id="Vector_20" d="M41.995 100.713C41.413 100.713 40.8947 100.486 40.54 100.067C40.1763 99.64 40.0217 99.0671 40.1217 98.4579C40.3218 97.212 41.4858 96.2026 42.7225 96.2026C43.3136 96.2026 43.832 96.4299 44.1866 96.8392C44.5504 97.2666 44.6959 97.8395 44.5958 98.4488C44.3958 99.6946 43.2318 100.704 41.995 100.704M44.7595 96.4027C44.2866 95.8479 43.5955 95.5479 42.8226 95.5479C41.2039 95.5479 39.6852 96.8483 39.4306 98.4579C39.3033 99.2308 39.4942 99.9674 39.9671 100.513C40.44 101.059 41.1311 101.368 41.9132 101.368C43.5319 101.368 45.0505 100.067 45.3051 98.476C45.4325 97.694 45.2415 96.9665 44.7686 96.4118" fill="var(--fill-0, #FDFDFD)"/>
<path id="Vector_21" d="M48.9154 100.713C48.3334 100.713 47.815 100.486 47.4604 100.067C47.0966 99.6401 46.9511 99.0671 47.0421 98.4579C47.2421 97.212 48.4061 96.2026 49.6429 96.2026C50.234 96.2026 50.7523 96.43 51.107 96.8392C51.4707 97.2666 51.6162 97.8395 51.5253 98.4488C51.3252 99.6946 50.1612 100.704 48.9245 100.704M51.6799 96.4027C51.207 95.848 50.5159 95.5479 49.7429 95.5479C48.1242 95.5479 46.6056 96.8483 46.3509 98.4579C46.2236 99.2308 46.4146 99.9674 46.8875 100.513C47.3603 101.059 48.0515 101.368 48.8335 101.368C50.4522 101.368 51.9709 100.067 52.2255 98.4761C52.3528 97.694 52.1528 96.9665 51.6799 96.4118" fill="var(--fill-0, #FDFDFD)"/>
</g>
</g>
</svg>
