<svg preserveAspectRatio="xMidYMid meet" width="100%" height="100%" overflow="visible" style="display: block;" viewBox="0 0 134 34" fill="none" xmlns="http://www.w3.org/2000/svg">
<g id="Ebene_1" clip-path="url(#clip0_0_261)">
<path id="Vector" d="M16.75 5.1C22.28 5.1 25.4 10.32 24.49 16.19C23.58 21.74 19.71 26.47 13.98 26.47C11.29 26.47 9.44 25.38 8.33 23.6L6.55 34H0L4.86 5.67H11.42L11.14 7.33C12.56 5.91 14.42 5.1 16.75 5.1ZM17.93 15.79C18.4 13.08 17.06 11.38 14.61 11.38C12.16 11.38 10.23 13 9.71 15.63L9.63 15.91C9.28 18.54 10.66 20.2 13.07 20.2C15.48 20.2 17.49 18.5 17.93 15.79ZM44.68 5.67H51.24L47.77 25.91H41.21L41.49 24.33C40.03 25.71 38.13 26.48 35.72 26.48C29.8 26.48 27.23 21.06 28.14 15.51C28.97 10.17 32.88 5.11 38.84 5.11C41.45 5.11 43.22 6.12 44.29 7.9L44.69 5.67H44.68ZM38.04 20.2C40.49 20.2 42.46 18.5 42.94 15.91V15.79C43.37 13.16 42.07 11.38 39.54 11.38C37.01 11.38 35.12 13.12 34.68 15.79C34.25 18.42 35.55 20.2 38.04 20.2ZM68.58 5.1C72.65 5.1 75.49 8.09 74.54 13.8L72.45 25.9H65.89L67.82 14.65C68.18 12.42 67.07 11.45 65.37 11.45C63.43 11.45 61.97 12.66 61.54 15.13V15.09L59.68 25.9H53.12L56.59 5.66H63.15L62.8 7.72C64.24 6.04 66.35 5.08 68.57 5.09L68.58 5.1ZM88.05 12.1L87.06 17.97C86.74 19.91 88.09 20.03 90.85 19.83L89.82 25.9C82.35 26.91 79.39 24.36 80.46 18.13L81.49 12.1H78.53L79.64 5.66H82.6L83.23 2.02L90.14 0L89.15 5.67H93.3L92.16 12.1H88.05ZM106.69 5.1C112.65 5.1 116.48 9.8 115.42 15.75C115.34 16.36 115.1 17.37 114.75 18.26H101.2C101.63 20.24 103.29 20.73 104.99 20.73C106.57 20.73 107.83 20.29 108.9 19.27L113.09 23.2C110.8 25.39 108.08 26.48 104.48 26.48C97.41 26.48 93.97 21.42 94.92 15.39C95.87 9.52 100.73 5.11 106.69 5.11V5.1ZM101.99 13.56H109.45C109.29 11.49 107.99 10.77 106.33 10.77C104.47 10.77 102.93 11.7 101.99 13.56ZM127.33 9.47C128.55 6.68 131.12 5.26 134 5.26L132.78 12.71C130.25 12.35 126.7 13.32 125.99 17.53L126.07 16.88L124.53 25.91H117.97L121.44 5.67H128L127.33 9.48V9.47Z" fill="var(--fill-0, white)"/>
</g>
<defs>
<clipPath id="clip0_0_261">
<rect width="134" height="34" fill="white"/>
</clipPath>
</defs>
</svg>
