<svg preserveAspectRatio="xMidYMid meet" width="100%" height="100%" overflow="visible" style="display: block;" viewBox="0 0 297.29 32" fill="none" xmlns="http://www.w3.org/2000/svg">
<g id="Ebene_1" clip-path="url(#clip0_0_266)">
<path id="Vector" d="M208.568 5.63613C208.568 5.63613 200.826 21.2129 200.268 22.3381C200.186 21.0374 199.143 5.63613 199.143 5.63613H192.568L194.168 28.449H203.83L215.308 5.63613H208.568ZM240.578 11.0452L241.724 5.62581H225.146L220.305 28.4387H237.099L238.245 23.0194H227.933C228.036 22.4826 228.645 19.6129 228.728 19.2516H238.194L239.185 14.5755H229.719C229.822 14.0594 230.39 11.4168 230.472 11.0658C230.906 11.0452 240.568 11.0452 240.568 11.0452H240.578ZM256.857 22.751C256.991 22.1006 260.511 5.63613 260.511 5.63613H254.028L249.166 28.4697H264.929L266.137 22.751H256.867H256.857ZM296.206 7.80387C294.885 6.18323 292.49 5.46064 288.165 5.46064C281.858 5.46064 277.357 6.89548 275.892 13.8426L274.55 20.129C273.961 22.9058 274.23 24.9187 275.324 26.2813C276.645 27.9019 279.061 28.6245 283.365 28.6245C289.672 28.6245 294.173 27.1897 295.639 20.2426L296.981 13.9561C297.569 11.1794 297.321 9.16645 296.206 7.80387ZM281.352 19.5819L282.415 14.5755C283.148 11.52 284.015 11.169 287.081 11.169C288.723 11.169 289.693 11.2723 290.126 11.7987C290.467 12.2323 290.498 13.0787 290.209 14.4619L289.146 19.4684C288.475 22.6271 287.463 22.9161 284.48 22.9161C282.859 22.9161 281.91 22.8129 281.497 22.3071C281.105 21.8735 281.063 21.0271 281.342 19.5819H281.352ZM88.5058 28.4903L93.3471 5.69806H104.785C110.431 5.69806 112.052 8.10323 110.772 14.0594C109.409 20.4697 107.53 22.6581 101.192 22.6581H95.8348L94.6064 28.4903H88.5058ZM101.089 17.3523C103.515 17.2697 103.897 16.9806 104.526 14.0387C105.022 11.6955 104.805 10.9626 102.452 10.9626H98.3019L96.96 17.3523H101.089ZM123.375 5.67742H135.071C140.305 5.76 142.637 6.89548 141.43 12.5832C140.635 16.3716 140.15 18.6013 135.639 19.6026L135.597 19.84C138.065 19.9226 139.375 21.2955 138.839 23.8658L137.868 28.4594H131.819L132.49 25.28C132.903 23.5871 132.428 22.4206 130.612 22.4206H125.925L124.645 28.4594H118.565L123.386 5.6671L123.375 5.67742ZM131.695 17.1355C134.307 17.1355 134.421 16.1652 134.957 13.5845C135.391 11.551 134.999 10.9626 132.986 10.9626H128.299L126.999 17.1355H131.685H131.695ZM150.545 20.3045L151.907 13.8735C153.404 6.85419 158.049 5.51226 164.212 5.51226C170.374 5.51226 174.431 6.85419 172.965 13.8735L171.603 20.3045C170.106 27.3239 165.461 28.6658 159.298 28.6658C153.135 28.6658 149.027 27.3239 150.545 20.3045ZM165.481 19.6335L166.565 14.4929C167.277 11.1174 166.214 10.7871 163.086 10.7871C159.959 10.7871 158.823 11.1071 158.028 14.4929L156.945 19.6232C156.315 23.0297 157.275 23.3703 160.423 23.3703C163.572 23.3703 164.748 23.0297 165.481 19.6232V19.6335ZM29.471 4.69677C26.9006 1.67226 23.1123 0 18.8284 0C9.97161 0 1.6 7.17419 0.196129 16.0103C-0.474839 20.2839 0.567742 24.289 3.13806 27.2929C5.70839 30.3277 9.51742 32 13.8426 32C22.7303 32 31.071 24.8465 32.4542 16.0723C33.1252 11.7781 32.0619 7.75226 29.471 4.69677ZM14.3381 28.4077C11.1381 28.4077 8.28903 27.1484 6.35871 24.8774C4.34581 22.5135 3.53032 19.3755 4.0671 16.0619C5.13032 9.1871 11.551 3.60258 18.3329 3.60258C21.5742 3.60258 24.4129 4.86194 26.3535 7.1329C28.3458 9.47613 29.1613 12.6142 28.6245 15.969C27.52 22.8129 21.12 28.4077 14.3381 28.4077ZM67.4271 4.69677C64.8568 1.66194 61.0684 0 56.7948 0C47.9071 0 39.5665 7.17419 38.1626 16.0103C37.4916 20.2839 38.5342 24.289 41.1045 27.2929C43.6748 30.3277 47.4839 32 51.809 32C60.6968 32 69.0374 24.8465 70.4206 16.0723C71.0916 11.7781 70.0284 7.75226 67.4374 4.69677H67.4271ZM52.2942 28.4077C49.0942 28.4077 46.2452 27.1484 44.2942 24.8774C42.2813 22.5135 41.4864 19.3755 42.0026 16.0619C43.0864 9.21806 49.5071 3.62323 56.289 3.62323C59.5303 3.62323 62.3587 4.88258 64.3097 7.15355C66.3019 9.49677 67.1174 12.6348 66.5806 15.9897C65.4761 22.8129 59.0761 28.4077 52.2942 28.4077Z" fill="var(--fill-0, white)"/>
</g>
<defs>
<clipPath id="clip0_0_266">
<rect width="297.29" height="32" fill="white"/>
</clipPath>
</defs>
</svg>
