<svg id="Layer_1" height="512" viewBox="0 0 512 512" width="512" xmlns="http://www.w3.org/2000/svg" data-name="Layer 1"><path d="m280.155 322.742a60.082 60.082 0 0 0 59.95-60.078v-18.17c-9.337-3.5-20.711-11.3-35.816-28.164-8.841-3.9-18.445-12.752-23.543-32.186-4.4 14.124-11.564 23.686-21.411 28.519a33.242 33.242 0 0 1 -6.778 2.445c-12.593 14.124-23.186 21.994-32.353 26.355v21.2a60.083 60.083 0 0 0 59.951 60.079z"/><path d="m350.35 156.751 31.5-51.577-52.222 32.026a83.426 83.426 0 0 1 20.722 19.551z"/><path d="m287.366 171.236c2.954 21.067 10.954 34.122 23.3 37.879a27.985 27.985 0 0 0 23.037-3.622 58.543 58.543 0 0 0 -46.337-34.257z"/><path d="m368.958 203.349a6.109 6.109 0 0 1 -1.08 4.226l4.865 14.685 45-13.474-49.723-11.462c.502 2.617.786 4.689.938 6.025z"/><path d="m250.246 354.293 77.977 16.328-12.408-48.856a68.719 68.719 0 0 1 -71.308.008l-5.318 20.941a88.793 88.793 0 0 1 11.057 11.579z"/><path d="m341.074 211.066c-4.373 4.068-12.536 7.769-21.683 8.1 20.3 19.914 31.228 19.372 41.829 18.839 2.342-.118 4.725-.238 7.2-.161l-9.113-27.5z"/><path d="m218.683 327.915c4.225 2.6 8.556 5.428 12.8 8.578l5.154-20.3a69.58 69.58 0 0 1 -15.1-17.217z"/><path d="m369.924 349.984-34.432 12.7 2.5 9.843a42.058 42.058 0 0 0 28.82-6.809l13.23-8.947a51.743 51.743 0 0 0 -10.118-6.787z"/><path d="m210.141 322.828 3.978-40.317a68.921 68.921 0 0 1 -2.915-19.847v-17.818c-1.686.466-3.324.829-4.913 1.106l-10.943 68.261 13.28 7.734z"/><path d="m349.105 246.771v15.893a69.016 69.016 0 0 1 -25.421 53.524l9.581 37.723 48.435-17.862-22.717-88.935a55.574 55.574 0 0 1 -9.878-.343z"/><path d="m255.414 204.562c9.605-4.739 16.062-16.025 19.253-33.54a58.723 58.723 0 0 0 -47.473 32.507c5.888 2.471 17.843 6.153 28.22 1.033z"/><path d="m220.145 210.188h-23.989l-9.156 27.635c1.356-.016 2.725 0 4.124.01 12.394.118 26.281.247 48.314-21.891a56.093 56.093 0 0 1 -19.293-5.754z"/><path d="m191.039 246.833c-.376 0-.74 0-1.112-.008l-15.663 55.112 12.747 7.422 10.026-62.545c-2.07.054-4.066.037-5.998.019z"/><path d="m114.118 390.838 22.714-33.368a4.5 4.5 0 0 1 7.44 5.064l-24.53 36.038 25.772 35.437a65.429 65.429 0 0 1 7.674 12.851l14.8-20.8a4.5 4.5 0 0 1 7.333 5.219l-18.445 25.921a65.676 65.676 0 0 1 2.226 16.861v10.3l60.274-57.545a4.5 4.5 0 0 1 6.215 6.51l-58.829 56.164h73.183l67.316-114.063-50.006-10.471a70.145 70.145 0 0 1 7.43 21.915 4.5 4.5 0 0 1 -3.7 5.176 4.565 4.565 0 0 1 -.742.061 4.5 4.5 0 0 1 -4.434-3.764c-4.866-29.343-27.481-44.372-47.275-56.029l-31.187 45.393a4.5 4.5 0 0 1 -7.417-5.1l30.81-44.845-69.625-40.542-44.64 65.6z"/><path d="m326.511 489.49 35.245-111.05a51.31 51.31 0 0 1 -18.45 3.438 50.366 50.366 0 0 1 -10.322-1.065l-16.421-3.439-66.163 112.116z"/><path d="m90.794 165.621 4.428-46.221h-54.8l.215 1.438a20.912 20.912 0 0 1 5.185-.662c15.484 0 27.612 16.945 27.612 38.576 0 18.683-9.05 33.86-21.493 37.652l6 40.091h26.059l6.789-70.86z"/><path d="m386.492 363.271-13.343 9.029-37.2 117.2h25.708l31.107-88.381a39.923 39.923 0 0 0 -6.272-37.848z"/><path d="m92.573 241.428a4.5 4.5 0 0 1 -4.48 4.071h-24.327l23.846 89.652 37.214-54.687-27.272-91.033z"/><path d="m462.367 480.428c5.582-3.116 10.145-9.323 12.206-16.605 3.593-12.689-1.024-25.156-10.29-27.79a12.806 12.806 0 0 0 -3.509-.488 15.767 15.767 0 0 0 -7.592 2.117c-5.583 3.116-10.146 9.323-12.207 16.6-3.591 12.69 1.025 25.157 10.291 27.79a14.576 14.576 0 0 0 11.101-1.624z"/><path d="m403.554 381.411a48.842 48.842 0 0 1 -2.3 22.686l-30.054 85.393h69.459l.882-2.437c-9.142-6.987-13.227-21.108-9.228-35.238 2.738-9.671 8.745-17.694 16.481-22.012a24.154 24.154 0 0 1 14.587-3.095l21.405-59.142-71.186-14.766z"/><path d="m225.9 137.2-52.222-32.029 31.494 51.575a83.413 83.413 0 0 1 20.728-19.546z"/><path d="m45.823 188.332c10.089 0 18.612-13.544 18.612-29.576s-8.523-29.576-18.612-29.576-18.611 13.544-18.611 29.576 8.523 29.576 18.611 29.576z"/><path d="m195.943 201.189h22.4a67.92 67.92 0 0 1 123.674.833l17.58-.7c-2.17-13.472-12.153-52.739-55.564-66.3a87.737 87.737 0 0 0 -52.368-.044c-43.437 13.464-53.51 52.614-55.722 66.211z"/><path d="m187.574 207.476a6.119 6.119 0 0 1 -1.016-4.137c.152-1.335.436-3.4.936-6.014l-49.714 11.461 44.905 13.447z"/><path d="m294.543 123.478-14.107-60.1-14.246 59.327a96.351 96.351 0 0 1 28.353.773z"/><path d="m33.349 96.15h67.917v14.254h-67.917z"/><path d="m55.069 87.15h31.366c3.123-2.734 11.833-11.694 10.765-25.827a16.106 16.106 0 0 1 -22.683-12.129c-1.433-9.039-4.867-19.827-7.256-26.684-16.311 18.64-23.883 35.267-21.955 48.358a24.246 24.246 0 0 0 9.763 16.282z"/></svg>