<svg preserveAspectRatio="xMidYMid meet" width="100%" height="100%" overflow="visible" style="display: block;" viewBox="0 0 249 21" fill="none" xmlns="http://www.w3.org/2000/svg">
<g id="Ebene_1" clip-path="url(#clip0_0_257)">
<path id="Vector" d="M44.1 9.14H32.14C31.15 9.14 30.36 8.36 30.36 7.4V4.45C30.36 3.49 31.16 2.71 32.14 2.71H47.26C48.03 2.71 48.65 2.1 48.65 1.35C48.65 0.6 48.03 -0.01 47.26 -0.01H29.35C26.83 -0.01 24.78 1.99 24.78 4.45V7.4C24.78 9.86 26.83 11.85 29.35 11.85H41.31C42.3 11.85 43.09 12.63 43.09 13.59V16.54C43.09 17.5 42.29 18.28 41.31 18.28H26.17C25.4 18.28 24.78 18.89 24.78 19.64C24.78 20.39 25.4 20.99 26.17 20.99H44.27C46.71 20.89 48.66 18.94 48.66 16.54V13.59C48.66 11.13 46.61 9.14 44.09 9.14H44.1ZM73.93 0H52.27C51.5 0 50.88 0.61 50.88 1.36C50.88 2.11 51.51 2.72 52.28 2.72H60.55V19.65C60.55 20.4 61.17 21.01 61.94 21.01H64.73C65.5 21.01 66.12 20.4 66.12 19.65V2.72H73.94C74.71 2.72 75.33 2.11 75.33 1.36C75.33 0.61 74.7 0 73.93 0ZM17.37 9.14H10.78V2.72C10.78 1.97 10.16 1.36 9.39 1.36C8.62 1.36 8 1.97 8 2.72V9.15H1.39C0.62 9.15 0 9.76 0 10.51C0 11.26 0.62 11.87 1.39 11.87H7.98V18.29C7.98 19.04 8.61 19.65 9.38 19.65C10.15 19.65 10.77 19.04 10.77 18.29V11.86H17.36C18.13 11.86 18.75 11.25 18.75 10.5C18.75 9.75 18.13 9.14 17.36 9.14H17.37ZM247.61 9.14H231.63C230.86 9.14 230.23 9.75 230.23 10.5C230.23 11.25 230.85 11.86 231.63 11.86H247.61C248.38 11.86 249 11.25 249 10.5C249 9.75 248.38 9.14 247.61 9.14ZM97.63 0H78.93C78.16 0 77.54 0.61 77.54 1.36V19.64C77.54 20.39 78.16 21 78.93 21H81.72C82.49 21 83.11 20.39 83.11 19.64V11.86H88.64C93.05 11.86 96.63 15.34 96.63 19.64C96.63 20.39 97.25 21 98.02 21H100.81C101.58 21 102.2 20.39 102.2 19.64C102.2 16.5 100.79 13.69 98.55 11.77C100.63 11.35 102.2 9.56 102.2 7.4V4.45C102.2 1.99 100.16 0 97.63 0ZM96.63 7.41C96.63 8.37 95.83 9.15 94.85 9.15H83.11V2.72H94.85C95.84 2.72 96.63 3.5 96.63 4.46V7.41ZM125.77 0H110.24C107.72 0 105.67 1.99 105.67 4.46V16.55C105.67 19.01 107.72 21.01 110.24 21.01H125.77C128.29 21.01 130.34 19.02 130.34 16.55V4.46C130.34 1.99 128.29 0 125.77 0ZM124.76 16.54C124.76 17.5 123.96 18.28 122.98 18.28H113.03C112.04 18.28 111.25 17.5 111.25 16.54V4.46C111.25 3.5 112.05 2.72 113.03 2.72H122.98C123.96 2.72 124.76 3.5 124.76 4.46V16.55V16.54ZM219.58 0H200.88C200.11 0 199.49 0.61 199.49 1.36V19.64C199.49 20.39 200.11 21 200.88 21H203.67C204.44 21 205.06 20.39 205.06 19.64V11.86H210.6C215.01 11.86 218.58 15.34 218.58 19.64C218.58 20.39 219.21 21 219.98 21H222.77C223.54 21 224.16 20.39 224.16 19.64C224.16 16.5 222.75 13.69 220.51 11.77C222.59 11.35 224.16 9.56 224.16 7.41V4.46C224.15 1.99 222.1 0 219.58 0ZM218.57 7.4C218.57 8.36 217.77 9.14 216.79 9.14H205.05V2.72H216.79C217.78 2.72 218.57 3.5 218.57 4.46V7.41V7.4ZM178.69 2.72H194.6C195.37 2.72 195.99 2.11 195.99 1.36C195.99 0.61 195.37 0 194.6 0H175.9C173.37 0 171.33 1.99 171.33 4.46V16.55C171.33 19.01 173.38 21 175.9 21H194.6C195.37 21 195.99 20.39 195.99 19.64C195.99 18.89 195.37 18.28 194.6 18.28H178.69C177.7 18.28 176.91 17.5 176.91 16.54V11.85H194.6C195.37 11.85 195.99 11.24 195.99 10.49C195.99 9.74 195.37 9.13 194.6 9.13H176.91V4.45C176.91 3.49 177.71 2.71 178.69 2.71V2.72ZM163.29 0H135.21C134.44 0 133.82 0.61 133.82 1.36V19.64C133.82 20.39 134.44 21 135.21 21H138C138.77 21 139.39 20.39 139.39 19.64V2.72H146.26C147.25 2.72 148.04 3.5 148.04 4.46V19.65C148.04 20.4 148.66 21.01 149.43 21.01H152.22C152.99 21.01 153.62 20.4 153.62 19.65V2.72H160.49C161.48 2.72 162.28 3.5 162.28 4.46V19.65C162.28 20.4 162.9 21.01 163.67 21.01H166.46C167.23 21.01 167.85 20.4 167.85 19.65V4.46C167.86 1.99 165.81 0 163.29 0Z" fill="var(--fill-0, white)"/>
</g>
<defs>
<clipPath id="clip0_0_257">
<rect width="249" height="21" fill="white"/>
</clipPath>
</defs>
</svg>
