<svg preserveAspectRatio="xMidYMid meet" width="100%" height="100%" overflow="visible" style="display: block;" viewBox="0 0 95 23" fill="none" xmlns="http://www.w3.org/2000/svg">
<g id="Ebene_1" clip-path="url(#clip0_0_259)">
<path id="Vector" d="M7.14 15.14C7.14 16.18 7.6 17.07 8.36 17.51C9.12 17.95 10.03 18.25 11.1 18.25C12.47 18.25 14.6 17.66 14.6 15.88C14.6 14.25 12.32 13.8 11.1 13.5C6.54 12.32 0.76 12.32 0.76 6.38C0.61 1.48 6.38 0 10.64 0C15.5 0 20.67 1.34 20.82 6.97H14.28C14.28 6.08 13.98 5.49 13.37 5.04C12.6 4.74 11.77 4.59 10.94 4.6C9.72 4.6 7.75 4.75 7.75 6.23C7.75 8.31 12.61 8.6 15.96 9.35C20.52 10.24 21.58 13.36 21.58 15.14C21.58 20.93 15.96 22.86 10.94 22.86C5.62 22.86 0.3 21.08 0 15.14H7.14ZM46.82 22.41H39.68V19.44H39.53C38.16 21.67 35.27 23 32.69 23C26.31 23 24.48 19.44 24.48 13.65V0.6H31.78V13.21C31.78 16.03 33 17.07 35.43 17.07C36.95 17.07 39.38 16.03 39.38 12.17V0.6H46.68V22.41H46.83H46.82ZM64.3 22.41H55.79L48.49 0.6H55.94L60.04 14.99H60.19L64.29 0.6H71.74L64.29 22.41H64.3ZM73.11 7.27C73.26 4.45 74.63 2.67 76.61 1.48C78.59 0.44 81.17 0 83.75 0C89.07 0 94.09 1.19 94.09 7.27V16.77C94.09 18.55 94.09 20.63 95 22.41H87.7C87.4 21.67 87.4 21.07 87.24 20.33C85.42 22.26 82.53 23 79.94 23C75.68 23 72.34 20.92 72.34 16.47C72.34 9.35 80.24 9.94 85.26 8.9C86.48 8.6 87.24 8.16 87.24 6.82C87.24 5.19 85.26 4.6 83.74 4.6C81.76 4.6 80.4 5.49 80.09 7.27H73.1H73.11ZM82.54 18.55C86.04 18.55 87.1 16.62 86.95 12.17C85.89 12.76 84.06 12.91 82.39 13.36C80.72 13.8 79.35 14.4 79.35 16.18C79.5 17.96 80.87 18.55 82.54 18.55Z" fill="var(--fill-0, white)"/>
</g>
<defs>
<clipPath id="clip0_0_259">
<rect width="95" height="23" fill="white"/>
</clipPath>
</defs>
</svg>
