<?xml version="1.0" encoding="utf-8"?>
<!-- Generator: Adobe Illustrator 27.5.0, SVG Export Plug-In . SVG Version: 6.00 Build 0)  -->
<svg version="1.1" id="Layer_1" xmlns="http://www.w3.org/2000/svg" xmlns:xlink="http://www.w3.org/1999/xlink" x="0px" y="0px"
	 viewBox="50 20 1890 1400" style="enable-background:new 50 20 1890 1400;" xml:space="preserve">
<g>
	<path d="M1892.76,1120.391c-0.846,4.533-1.658,9.074-2.546,13.599c-1.354,6.899-5.336,9.576-12.498,8.765
		c-14.104-1.597-28.29-2.476-42.391-4.093c-3.13-0.359-6.42-2.055-8.991-3.991c-5.532-4.165-10.799-8.721-15.839-13.473
		c-1.653-1.559-2.559-4.121-3.297-6.39c-1.156-3.555-1.425-7.444-2.87-10.852c-4.174-9.842-7.178-11.273-17.439-8.204
		c-9.724,2.909-19.254,6.467-28.976,9.385c-12.338,3.703-18.058,12.654-20.82,24.47c-0.838,3.584-2.13,7.394-4.307,10.276
		c-8.474,11.224-11.956,23.684-10.874,37.596c0.608,7.821,1.264,15.65,1.459,23.487c0.219,8.79,4.682,14.59,12.703,16.677
		c9.182,2.39,18.713,3.442,29.485,5.317c2.317,5.551,3.02,11.333-5.948,14.343c-1.508,0.506-3.503,1.742-3.889,3.049
		c-2.367,8.015-5.419,16.066-6.041,24.272c-0.39,5.146,2.156,11.157,5.031,15.751c3.81,6.089,9.407,11.032,13.916,16.722
		c7.924,10,4.755,26.1-7.134,30.9c-6.69,2.701-14.75,2.542-22.183,2.481c-1.735-0.015-5.336-5.337-4.823-7.414
		c2.537-10.267-2.818-16.472-10.367-20.845c-11.142-6.454-15.23-15.765-16.877-28.22c-3.394-25.667-28.972-37.984-52.907-26.756
		c-9.954,4.669-19.978,9.387-30.395,12.78c-4.33,1.41-10.381,0.68-14.559-1.336c-5.911-2.852-8.851-1.405-10.52,3.991
		c-1.355,4.381-2.19,8.99-2.669,13.56c-1.069,10.194-4.158,12.981-14.217,13.431c-14.88,0.664-29.597,4.383-44.55-1.434
		c-8.305-3.231-14.46-7.382-19.26-15.016c-6.107-9.714-13.741-18.456-20.388-27.85c-1.511-2.136-2.288-5.212-2.351-7.88
		c-0.321-13.652-0.266-27.313-0.421-40.97c-0.03-2.604-0.096-5.274-0.674-7.793c-3.024-13.188-7.024-14.775-17.999-7.343
		c-11.658,7.895-11.598,7.852-19.919-3.76c-1.285-1.794-3.171-3.635-5.175-4.359c-11.894-4.302-29.785,3.675-35.24,15.567
		c-2.656,5.79-6.391,11.53-7.155,17.604c-0.636,5.056,2.105,10.652,3.854,15.839c0.779,2.309,3.932,4.128,4.075,6.296
		c1.818,27.585,10.757,55.77-6.561,81.906c-2.009,3.031-1.992,7.358-3.836,10.553c-2.828,4.9-6.393,9.385-9.762,13.96
		c-3.325,4.515-6.907,8.843-10.154,13.41c-1.667,2.345-2.692,5.137-4.281,7.548c-3.722,5.646-7.678,6.211-13.756,2.247
		c-29.073-18.962-32.543-47.143-27.848-77.673c2.989-19.434,9.631-38.363,7.347-58.423c-0.751-6.594-1.673-13.221-3.248-19.655
		c-1.574-6.43-5.509-10.768-12.029-13.746c-9.784-4.47-16.138-11.602-14.152-23.987c1.557-9.71,1.777-19.667,2.114-29.531
		c0.326-9.547-4.422-14.985-13.709-17.223c-6.188-1.491-12.308-3.284-18.41-5.104c-8.647-2.579-15.517,0.067-17.786,8.641
		c-2.835,10.709-9.951,15.685-19.913,16.437c-11.735,0.885-23.576,0.598-35.366,0.458c-7.835-0.093-15.67-0.715-23.49-1.292
		c-5.978-0.441-9.497-2.523-8.855-9.885c0.319-3.658-2.213-8.151-4.663-11.339c-4.781-6.22-6.019-12.166-2.246-19.3
		c2.566-4.851,3.785-10.472,6.684-15.069c2.473-3.92,5.908-8.189,9.946-9.951c6.698-2.924,11.187-6.812,13.067-13.875
		c1.216-4.57,3.525-7.108,9.229-6.915c11.34,0.384,19.472-7,21.819-18.402c4.252-20.657,14.161-27.119,35.132-24.84
		c9.682,1.052,19.816,0.602,29.394-1.122c4.961-0.893,10.246-5.23,13.435-9.473c4.646-6.182,7.462-13.723,11.192-20.612
		c4.498-8.31,11.054-9.777,17.279-2.827c4.992,5.573,9.008,4.23,14.381,1.342c6.535-3.512,13.797-5.729,20.159-9.492
		c5.059-2.992,10.148-6.8,13.576-11.457c4.026-5.47,7.121-8.128,14.807-6.705c10.757,1.991,22.069,0.765,33.015,2.031
		c7.217,0.835,14.24,3.52,21.29,5.583c7.388,2.162,14.579,5.26,22.096,6.628c5.063,0.921,9.256-2.376,9.117-8.12
		c-0.457-18.824,11.165-31.894,21.727-45.213c4.965-6.261,4.807-10.235,0.046-16.574c-5.096-6.785-8.455-14.996-11.846-22.896
		c-2.414-5.625,0.756-8.738,6.474-9.484c0.576-0.075,1.189-0.255,1.732-0.139c21.677,4.627,43.728-3.438,65.173,1.31
		c16.927,3.748,33.343,9.825,49.954,14.971c5.814,1.801,11.473,4.111,17.307,5.836c10.014,2.96,11.501,5.379,9.323,15.624
		c-1.26,5.925-3.234,11.945-3.013,17.852c0.152,4.066,2.462,9.768,5.647,11.684c9.544,5.74,19.602,11.273,30.19,14.461
		c12.015,3.618,22.619,8.35,31.538,17.384c3.818,3.867,9.368,6.042,14.179,8.905c2.73,1.625,5.689,2.89,8.317,4.656
		c10.223,6.869,22.085,6.535,32.298-0.651c4.214-2.965,8.64-6.271,13.468-7.568c7.111-1.911,10.182-5.935,10.64-12.813
		c0.173-2.603,0.499-5.209,0.949-7.78c2.502-14.307,2.711-14.748,17.235-14.101c5.579,0.249,8.181-1.82,10.619-6.516
		c4.404-8.482,9.093-16.922,14.647-24.675c6.959-9.714,14.868-9.921,23.427-1.552c7.236,7.076,14.879,13.849,21.233,21.656
		c2.429,2.984,2.778,8.575,2.344,12.8c-1.298,12.633-3.183,25.224-5.368,37.739c-1.37,7.849-3.98,15.477-5.487,23.309
		c-0.97,5.043-1.824,10.386-1.188,15.4c1.259,9.938-0.64,18.164-8.745,24.673c-4.021,3.229-5.555,6.62-3.098,12.625
		c1.5,3.665-1.163,10.026-3.67,14.132c-5.672,9.291-4.743,17.901-0.266,27.137c2.448,5.051,5.69,8.483,11.322,7.312
		c12.226-2.543,18.906,3.867,23.863,13.638C1892.76,1111.091,1892.76,1115.741,1892.76,1120.391z"/>
	<path d="M1149.407,436.813c1.656,4.544,2.824,9.36,5.153,13.53c1.376,2.464,4.587,5.383,6.973,5.383
		c2.319-0.001,5.017-3.169,6.84-5.5c1.596-2.041,2.208-4.85,4.174-9.488c2.85,4.884,4.125,8.083,6.282,10.492
		c2.332,2.604,5.229,5.756,8.341,6.383c5.828,1.174,7.81,4.234,7.877,9.557c0.018,1.445,0.5,2.906,0.385,4.329
		c-1.451,17.982,4.927,30.408,23.698,34.835c4.617,1.089,8.668,3.901,5.294,10.047c-0.393,0.717,0.152,2.468,0.842,3.18
		c8.48,8.754,1.575,16.221-2.401,23.469c-1.302,2.373-5.959,4.867-8.252,4.245c-2.924-0.793-6.933-4.558-7.117-7.27
		c-0.793-11.653-6.02-17.754-17.695-20.141c-3.682-0.753-6.562-6.61-9.282-10.499c-2.136-3.056-2.994-7.057-5.312-9.914
		c-1.524-1.879-4.776-3.684-7.012-3.427c-8.992,1.035-15.745,11.382-13.897,20.297c0.294,1.417,1.123,3.087,0.672,4.235
		c-3.707,9.432-7.56,18.81-11.661,28.076c-0.506,1.145-2.729,1.531-5.626,3.027c-0.568-9.644-0.693-18.187-1.734-26.617
		c-0.484-3.914-2.438-10.609-4.271-10.799c-4.313-0.448-9.135,1.868-13.386,3.849c-2.16,1.007-3.531,3.706-4.936,5.28
		c-9.811-3.029-18.826-6.098-28.002-8.567c-9.515-2.56-16.125-13.015-8.415-22.984c4.781-6.182,9.074-12.79,13.09-19.502
		c5.551-9.276,12.897-15.101,24.051-16.505c4.271-0.538,8.415-3.561,12.211-6.064c6.136-4.045,11.938-8.598,17.881-12.936
		C1145.917,436.813,1147.662,436.813,1149.407,436.813z"/>
	<path d="M649.067,1269.307c-1.495-3.049-2.156-4.658-3.031-6.14c-7.574-12.828-11.528-13.383-22.295-3.34
		c-2.724,2.541-5.672,4.843-8.259,7.037c-16.038-11.674-20.559-26.855-16.103-45.074c0.39-1.594,1.09-3.413,2.247-4.472
		c13.052-11.955,17.72-27.403,19.002-44.38c0.415-5.492,0.021-11.508,2.185-16.296c3.217-7.12,7.063-15.214,13.069-19.478
		c6.562-4.659,9.815-9.241,9.86-16.766c0.017-2.906-0.049-5.813,0.012-8.717c0.246-11.791,1.165-13.072,12.639-13.827
		c7.011-0.461,10.647-4.387,12.23-10.436c1.77-6.762,3.433-13.839-3.472-19.144c-6.899-5.301-14.333-10.038-20.543-16.043
		c-2.864-2.769-5.096-8.181-4.628-12.033c1.487-12.263,4.419-24.348,6.709-36.518c1.315-6.99,2.467-14.011,4.029-22.935
		c3.334-1.095,10.018-2.349,10.137-11.367c0.16-12.095-0.846-13.597-12.841-15.362c-12.033-1.771-24.027-3.839-35.983-6.074
		c-5.312-0.993-8.379-3.805-5.726-9.869c0.658-1.505,0.963-3.652,0.409-5.119c-3.775-9.987-2.234-18.397,5.538-26.178
		c1.286-1.288-0.284-7.764-2.446-9.624c-3.542-3.047-8.99-6.406-13.021-5.768c-5.993,0.949-11.468,5.237-17.134,8.159
		c-12.25,6.318-24.752,8.453-37.499,1.683c-9.569-5.082-10.734-12.357-3.447-20.459c1.92-2.135,4.126-4.322,6.656-5.548
		c12.284-5.955,13.942-16.786,11.676-28.046c-2.099-10.43-10.478-16.864-20.279-19.642c-14.521-4.117-29.389-7.438-43.318,2.743
		c-2.906,2.124-6.684,3.057-11.372,5.115c-0.976-9.715-2.115-18.257-2.432-26.829c-0.057-1.532,3.085-3.547,5.11-4.721
		c6.179-3.584,12.51-6.911,18.83-10.246c3.035-1.601,6.035-3.563,9.298-4.386c16.487-4.157,29.246-12.784,35.164-29.293
		c1.913-5.336,4.454-7.387,10.146-6.289c3.945,0.761,8.113,0.523,12.178,0.477c11.811-0.134,14.012-2.041,16.006-13.472
		c1.892-10.845,9.876-16.892,19.343-12.087c18.201,9.239,33.777,4.547,50.104-4.567c17.616-9.834,46.319-9.443,65.118,0.036
		c-4.294,4.279-7.818,8.867-12.324,12.079c-13.705,9.77-27.756,19.061-41.738,28.44c-11.845,7.945-11.032,19.816,1.909,26.652
		c4.363,2.305,8.736,4.593,13.061,6.969c7.398,4.064,10.37,9.803,6.969,18.116c-1.091,2.666-1.647,5.553-2.423,8.346
		c-1.33,4.79,0.786,7.422,5.462,7.71c13.271,0.817,26.583,1.629,33.465-13.6c1.169-2.587,3.497-4.627,5.065-7.063
		c4.959-7.703,11.143-9.713,20.04-6.3c5.799,2.224,12.469,3.378,18.669,3.118c14.241-0.595,20.347-10.441,14.686-23.391
		c-6.428-14.704-10.969-30.671-25.193-40.7c-2.086-1.471-3.138-4.406-6.472-9.326c14.817-0.818,27.059-1.712,39.313-1.922
		c1.74-0.03,4.068,2.978,5.211,5.077c4.234,7.772,10.57,11.245,19.318,10.566c0.865-0.067,1.744,0.007,2.615,0.045
		c7.753,0.336,17.395-1.996,22.731,1.767c5.425,3.826,6.631,13.652,9.637,20.87c2.23,5.356,3.841,11.049,6.671,16.061
		c10.288,18.221,7.828,36.886,2.301,55.575c-4.86,16.432-0.738,31.674,5.848,46.398c1.287,2.877,6.442,4.427,10.12,5.713
		c3.19,1.116,6.814,0.992,10.743,1.478c1.122,10.805,1.704,20.894-4.502,30.366c-3.566,5.443-7.359,9.409-14.472,9.331
		c-2.135-0.024-5.653,1.54-6.222,3.179c-3.918,11.301-10.993,22.418-5.233,34.993c2.658,5.802,5.95,11.522,9.977,16.444
		c6.792,8.303,14.365,15.973,21.672,23.851c6.549,7.062,14.084,10.109,24.185,8.431c15.763-2.618,31.077-1.283,45.43,7.456
		c4.568,2.782,11.314,3.848,16.694,3.087c15.041-2.128,29.412-0.34,43.967,3.307c4.055,1.016,9.175-0.926,13.448-2.489
		c3.152-1.153,5.998-3.606,8.502-5.983c10.388-9.865,21-6.539,31.651-0.78c1.997,1.08,4.595,2.451,5.29,4.299
		c3.96,10.53,7.862,21.125,10.862,31.953c1.327,4.792-1.754,8.715-7.185,8.674c-9.698-0.074-12.627,4.908-12.103,13.823
		c0.173,2.938-0.695,6.999-2.676,8.82c-8.863,8.144-10.987,18.927-12.581,29.847c-1.312,8.985-5.647,15.41-13.018,20.542
		c-12.694,8.839-25.32,16.746-41.414,19.012c-12.936,1.821-23.599-1.009-34.982-6.512c-18.441-8.915-37.775-15.029-58.791-8.785
		c-4.815,1.431-7.264,3.563-7.375,8.969c-0.218,10.558-4.279,18.145-14.908,23.144c-21.438,10.083-43.227,20.103-62.805,33.227
		c-14.178,9.504-25.376,11.372-40.357,3.143c-13.706-7.528-17.29-5.18-27.573,6.151c-3.358,3.699-8.891,6.176-13.879,7.45
		c-5.61,1.432-9.83,2.469-9.965,9.504c-0.136,7.112-4.768,10.223-11.572,10.154c-4.059-0.041-8.213,0.051-12.153-0.752
		c-15.504-3.162-29.302,0.439-42.072,9.426C659.79,1263.249,654.69,1265.921,649.067,1269.307z"/>
	<path d="M1074.799,1099.963c0.919,6.569,2.16,11.949,2.304,17.358c0.177,6.637-1.007,13.312-0.805,19.946
		c0.346,11.369,4.231,20.696,15.349,26.268c7.353,3.685,7.355,7.24,0.757,11.952c-3.252,2.323-7.095,5.024-10.814,5.255
		c-9.812,0.609-13.782,6.708-15.6,14.812c-1.688,7.527-6.323,11.931-12.636,15.627c-6.493,3.802-12.926,7.89-18.707,12.672
		c-5.59,4.624-7.961,10.28-2.943,17.555c1.41,2.044,0.316,6.773-1.092,9.523c-1.348,2.635-4.307,4.846-7.058,6.295
		c-11.6,6.107-21.07,13.943-26.955,26.187c-1.728,3.596-6.878,6.08-10.982,7.89c-7.95,3.507-16.372,5.929-24.417,9.241
		c-15.025,6.187-17.732,17.278-7.999,29.936c4.402,5.724,8.619,11.754,11.85,18.182c12.741,25.355,2.801,47.729-24.54,56.121
		c-17.099,5.249-22.886,15.211-22.08,33.067c0.376,8.337-1.945,17.26-5.134,25.064c-1.281,3.135-8.021,4.581-12.548,5.736
		c-8.674,2.213-17.612,3.381-26.311,5.509c-11.042,2.701-16.068,10.28-16.935,21.463c-1.217,15.693-2.983,16.964-18.91,14.672
		c-10.896-1.568-21.786-3.29-32.564-5.501c-3.154-0.647-6.252-2.817-8.774-4.987c-3.725-3.205-7.049-6.914-10.299-10.623
		c-7.263-8.288-15.192-12.537-27.261-10.96c-7.226,0.944-15.193-3.775-23.108-6.029c-15.216,9.326-31.862,19.01-47.932,29.569
		c-10.026,6.588-20.496,11.788-32.439,10.807c-22.979-1.888-44.029,4.122-63.406,15.256c-21.077,12.11-46.552,3.419-56.971-17.571
		c-6.553-13.201-10.892-27.663-18.602-40.085c-8.956-14.43-20.392-27.346-31.117-40.624c-1.189-1.472-4.847-1.656-7.22-1.35
		c-13.307,1.715-17.918-3.947-14.153-17.4c1.239-4.428,1.903-9.034,2.591-13.594c0.779-5.167-1.661-8.13-6.697-9.407
		c-6.75-1.711-13.359-4.044-20.168-5.434c-5.169-1.055-7.469-3.062-6.892-8.71c1.003-9.813,0.397-19.877,2.262-29.488
		c1.367-7.042,4.403-14.473,8.807-20.073c11.039-14.039,11.883-20.314,1.757-34.863c-4.976-7.15-9.852-14.371-14.804-21.538
		c-4.485-6.491-3.299-11.075,2.118-17.419c6.45-7.554,13.017-11.343,22.701-10.907c5.981,0.269,9.474,2.413,11.385,8.487
		c2.496,7.934,4.171,17.766,9.789,22.688c8.135,7.125,11.576,14.72,13.016,24.698c0.538,3.726,3.538,7.263,5.906,10.531
		c8.675,11.972,17.243,23.67,21.743,38.334c4.416,14.39,16.955,18.277,28.992,8.914c14.38-11.185,27.589-23.978,40.504-36.876
		c3.767-3.762,5.578-10.073,6.905-15.55c2.231-9.208,5.24-17.106,15.298-20.453c2.459-0.818,4.344-3.58,6.302-5.63
		c3.595-3.764,6.767-7.978,10.622-11.441c7.591-6.82,13.458-5.693,15.633,4.084c2.029,9.121,6.245,7.199,11.635,4.424
		c3.093-1.592,6.322-3.135,8.984-5.317c14.362-11.767,30.541-14.65,48.351-10.604c2.517,0.572,5.215,0.691,7.802,0.545
		c7.753-0.438,13.571-3.434,14.258-12.156c0.481-6.097,3.883-8.854,9.728-8.741c7.82,0.151,13.253-3.186,16.664-10.259
		c3.245-6.727,8.552-8.08,15.276-5.241c7.478,3.158,14.814,6.963,22.604,8.947c4.179,1.065,10.176,0.341,13.648-2.049
		c19.212-13.226,38.939-25.155,61.074-33.09c8.07-2.893,16.006-7.437,22.498-12.987c4.099-3.504,6.799-10.059,7.622-15.615
		c1.03-6.95,4.261-9.439,10.333-11.961c14.625-6.075,27.147,1.4,40.338,4.703c3.624,0.907,7.18,2.438,10.486,4.209
		c25.174,13.483,48.432,7.779,71.689-5.728c14.926-8.668,24.117-19.848,25.257-37.543
		C1061.227,1111.437,1064.107,1104.503,1074.799,1099.963z"/>
	<path d="M611.977,1274.63c-15.218,4.769-20.076,14.298-21.481,26.479c-0.32,2.777-1.275,6.138-3.162,7.974
		c-14.297,13.908-28.216,28.343-43.667,40.873c-8.928,7.24-17.019,4.355-20.887-7.285c-5.264-15.842-14.83-28.756-23.765-42.266
		c-1.586-2.398-3.368-5.036-3.799-7.762c-1.628-10.305-4.067-19.274-15.004-24.51c-3.483-1.668-4.597-8.948-6.134-13.866
		c-3.103-9.934-6.677-18.219-19.704-18.298c-3.723-0.023-8.784-5.314-10.811-9.392c-3.656-7.353-8.363-11.925-16.403-14.054
		c-16.828-4.458-33.44-9.725-50.237-14.308c-3.496-0.954-8.184-1.799-10.994-0.265c-11.835,6.458-24.362,4.782-36.678,3.958
		c-11.641-0.779-20.837,2.35-28.664,11.232c-6.851,7.775-15.664,14.458-26.317,13.621c-27.055-2.125-44.231,11.973-58.208,32.504
		c-1.954,2.87-4.1,5.61-5.473,7.48c-8.664-6.932-17.629-13.242-25.55-20.665c-9.689-9.079-18.772-18.853-27.574-28.806
		c-4.028-4.555-2.162-31.343,1.508-36.433c9.16-12.704,18.23-25.474,28.047-39.212c-3.594-2.532-6.374-4.8-9.44-6.578
		c-4.63-2.685-5.484-6.289-1.944-9.947c22.947-23.712,43.879-49.614,74.907-64.186c11.617-5.456,21.861-13.793,32.87-20.591
		c5.867-3.623,11.726-7.65,18.152-9.863c5.724-1.972,7.333-4.781,6.16-10.14c-1.174-5.366-3.258-10.734-3.27-16.105
		c-0.018-7.891,0.688-15.992,2.738-23.557c0.634-2.34,6.537-3.582,10.218-4.705c8.78-2.677,18.154-3.923,26.42-7.663
		c16.812-7.606,34.263-13.847,49.016-25.901c10.018-8.185,18.478-5.306,23.1,7.048c4.449,11.891,7.836,24.369,9.984,36.881
		c2.438,14.197,8.598,24.707,21.564,31.465c3.083,1.607,7.421,7.437,6.805,8.339c-2.472,3.62-6.585,6.174-10.269,8.881
		c-1.087,0.799-2.743,0.886-4.165,1.159c-5.731,1.097-10.594,3.98-9.236,10.167c0.424,1.933,6.82,3.185,10.605,3.581
		c3.971,0.415,8.091-0.896,12.142-0.876c8.238,0.041,14.14-2.697,18.287-10.505c4.005-7.539,14.017-7.89,18.915-1.549
		c3.987,5.162,3.95,10.122-1.162,14.598c-10.488,9.184-21.404,17.928-26.836,31.531c-0.686,1.719-4.17,2.533-6.506,3.336
		c-3.647,1.254-9.352,1.005-10.763,3.404c-3.566,6.064-5.41,13.19-7.521,20.021c-0.54,1.746,0.469,3.981,0.802,5.985
		c2.99,17.992,2.994,17.981,21.337,20.55c2.011,0.282,4.006,0.723,5.984,1.192c6.555,1.554,5.716,5.108,1.723,8.407
		c-4.459,3.684-9.726,6.386-14.227,10.027c-6.777,5.483-7.155,12.573-1.583,19.805c4.932,6.401,10.607,6.842,18.042,1.4
		c10.831-7.926,11.538-8.642,21.166,0.857c8.305,8.192,14.591,18.4,22.163,27.385c1.538,1.825,5.891,3.78,7.159,2.95
		c14.401-9.432,29.354-17.597,45.264-24.318c5.24-2.214,9.158-7.944,13.217-12.481c8.283-9.256,19.274-12.464,30.83-14.723
		c5.015-0.98,7.812,0.24,7.612,6.012c-0.688,19.812-3.266,38.818-20.591,52.031c-0.231,0.176-0.471,0.35-0.664,0.564
		c-2.836,3.149-2.618,33.248-0.021,36.744C601.108,1259.135,605.971,1266.186,611.977,1274.63z"/>
	<path d="M1370.021,1366.755c-7.691,9.27-14.568,18.612-22.6,26.824c-4.442,4.542-7.313,8.571-6.095,15.024
		c2.151,11.395-1.114,19.774-13.097,23.586c-2.914,0.927-5.601,3.116-7.93,5.233c-8.06,7.326-8.935,14.196-2.366,22.839
		c3.5,4.606,3.093,8.046-0.282,12.362c-8.67,11.089-8.77,16.522,0.497,27.41c5.043,5.925,11.474,10.649,17.056,16.141
		c8.325,8.193,7.911,13.901-0.029,22.22c-2.947,3.088-5.109,7.525-6.148,11.713c-2.806,11.308-7.186,14.603-18.619,12.465
		c-3.137-0.586-6.188-1.768-9.339-2.111c-8.314-0.905-15.125-1.23-11.376-13.739c1.81-6.04-2.063-14.127-4.316-20.974
		c-7.385-22.449-18.442-41.81-43.754-48.06c-5.351-1.321-7.5-4.667-5.175-9.675c3.249-6.998,5.537-15.56,11.008-20.161
		c9.46-7.954,8.138-15.795,4.718-25.309c-2.779-7.731-6.922-11.567-15.907-10.895c-7.377,0.552-15.099-0.633-22.365-2.338
		c-6.127-1.437-8.063,0.94-8.809,6.077c-0.788,5.426-1.489,10.865-2.333,17.077c-6.909-2.935-10.107-8.328-10.898-14.56
		c-1.396-10.993-8.066-16.366-17.941-18.578c-10.164-2.277-18.308-5.856-17.997-18.447c0.049-1.975-2.617-4.234-4.391-5.997
		c-5.9-5.866-12.796-10.934-17.78-17.472c-8.305-10.896-17.453-20.218-30.743-24.622c-5.859-1.942-8.255-6.064-9.832-11.945
		c-3.32-12.388-5.071-24.179,2.502-35.852c2.086-3.215,3.009-7.739,3.002-11.66c-0.038-19.446,0.005-38.924-1.118-58.325
		c-0.775-13.388-5.01-15.675-17.822-12.825c-3.157,0.702-6.498,0.581-10.425,0.891c1.185-9.857,3.231-16.822,13.858-18.156
		c4.201-0.527,8.195-3.82,11.974-6.32c5.973-3.951,12.278-7.698,17.3-12.681c3.367-3.341,5.731-8.44,6.853-13.155
		c3.656-15.36,7.452-18.176,22.934-15.177c1.706,0.331,3.4,0.737,5.08,1.183c11.005,2.924,21.237,6.288,33.656,3.261
		c10.777-2.627,23.036,1.556,34.597,1.222c15.532-0.448,31.057-2.037,46.515-3.757c6.928-0.771,9.532-6.433,11.501-12.679
		c3.397-10.771,5.968-11.728,16.611-8.289c4.132,1.335,8.397,2.282,12.635,3.261c10.903,2.518,14.199,6.232,13.869,17.501
		c-0.28,9.569-1.418,19.111-2.088,28.672c-0.795,11.328,5.286,19.539,15.325,24.654c4.572,2.329,9.292,7.551,10.668,12.391
		c5.066,17.819,6.183,36.193,0.596,54.138c-7.071,22.71-9.004,45.208-2.654,68.527c3.133,11.504,10.648,19.025,18.509,26.748
		C1360.952,1358.245,1364.965,1361.953,1370.021,1366.755z"/>
	<path d="M1367.89,870.734c2.084-3.672,4.518-7.195,6.164-11.053c2.12-4.969,4.776-10.122,5.153-15.344
		c1.181-16.347-5.193-24.646-21.601-25.117c-17.301-0.496-31.239-5.198-40.739-20.323c-0.907-1.445-3.366-2.638-5.148-2.699
		c-14.007-0.474-19.279-10.167-23.016-21.434c-4.85-14.621-4.876-14.985-19.969-10.282c-14.391,4.484-28.8,6.159-43.642,3.479
		c0.049-11.783,3.055-15.035,13.471-15.964c7.499-0.669,15.552-0.515,22.247-3.348c7.102-3.005,13.647-8.389,19.046-14.056
		c5.515-5.789,9.972-12.86,13.647-20.009c1.843-3.586,1.067-8.589,1.156-12.958c0.027-1.327-0.885-2.749-1.588-4.004
		c-5.082-9.07-10.534-17.32-3.524-28.728c5.383-8.76,9.329-17.787,19.611-22.149c6.902-2.927,9.158-8.044,5.619-15.586
		c-1.974-4.206-4.334-10.178-2.759-13.65c2.49-5.491,16.192-7.341,22.378-3.123c7.42,5.059,12.387,2.547,18.679-1.794
		c3.148-2.172,8.705-2.773,12.518-1.719c13.08,3.615,25.876,8.258,38.769,12.546c8.786,2.922,12.285-2.973,14.949-9.366
		c2.427-5.826,4.048-11.987,6.705-20.071c6.158,5.839,10.992,10.576,15.992,15.129c8.959,8.158,11.083,7.721,18.118-1.955
		c1.478-2.033,5.365-4.381,7.188-3.765c11.427,3.86,22.583,8.519,34.308,13.101c1.715,15.74,0.626,17.945-15.734,19.843
		c-11.712,1.358-20.951,6.47-29.054,14.296c-7.846,7.578-16.996,10.826-27.801,9.63c-1.439-0.159-2.997,0.234-4.345-0.159
		c-23.045-6.708-35.1,7.942-46.665,23.759c-3.893,5.325-5.159,10.749-0.176,15.701c5.946,5.91,6.158,12.655,4.665,20.121
		c-0.68,3.4-0.836,6.91-1.15,10.377c-0.706,7.783,3.563,11.826,10.7,11.625c9.712-0.273,17.735,3.42,26.388,7.129
		c11.346,4.864,23.691,7.513,35.743,10.584c9.844,2.508,17.511-1.841,21.667-10.46c4.496-9.325,7.716-19.291,11.122-29.106
		c2.992-8.623,7.405-17.155,1.639-26.637c-0.99-1.628,1.028-5.373,2.15-7.924c1.628-3.704,5.024-7.103,5.328-10.822
		c0.746-9.135,6.085-10.041,13.224-9.256c2.016,0.222,4.074,0.043,6.1,0.209c6.095,0.501,11.711,0.001,14.876-6.346
		c2.786-5.587,1.592-10.294-2.077-15.289c-4.096-5.577-0.792-12.498,6.214-13.582c3.381-0.523,6.962-0.095,10.416,0.255
		c15.612,1.582,13.888,4.896,9.107,13.986c-3.396,6.456,0.142,10.223,4.479,14.169c8.945,8.139,8.667,11.404-1.726,17.08
		c-9.879,5.395-19.298,10.941-21.095,23.54c-0.185,1.299-1.294,2.64-2.304,3.622c-18.27,17.774-26.964,41.381-36.224,63.953
		c-4.161,10.142-0.518,23.726,0.535,35.665c0.604,6.851,3.671,13.462,4.563,20.32c0.573,4.406,0.725,10.089-1.542,13.437
		c-11.605,17.144-5.731,34.305,3.125,48.32c8.318,13.165,6.404,21.005-2.231,31.874c-8.142,10.248-16.355,21.29-15.09,36.093
		c0.138,1.616-4.481,5.071-6.958,5.134c-3.508,0.09-7.473-1.569-10.549-3.554c-12.226-7.893-25.637-9.89-39.887-10.168
		c-23.5-0.459-25.475-2.566-27.901-26.12c-0.742-7.203-0.334-14.517-0.706-21.768c-0.222-4.329-0.439-8.763-1.526-12.923
		c-2.838-10.861-7.375-13.455-18.514-11.552c-3.618,0.618-7.291,0.916-10.939,1.36
		C1368.943,872.181,1368.417,871.458,1367.89,870.734z"/>
	<path d="M1158.66,517.527c0-2.313-0.941-5.366,0.184-6.796c2.898-3.684,6.711-6.65,10.158-9.903
		c1.908,2.578,4.407,4.908,5.612,7.781c3.611,8.604,7.616,16.113,18.571,16.88c6.644,0.465,9.297,5.933,9.741,11.664
		c0.573,7.397,4.282,12.174,9.886,16.463c11.104,8.498,21.539,17.578,27.4,30.954c1.214,2.771,5.472,5.338,8.684,5.879
		c7.41,1.248,8.842,5.508,8.011,11.806c-0.038,0.287-0.058,0.589-0.161,0.854c-5.062,13.068-2.635,25.213,3.255,37.565
		c2.121,4.447,0.436,10.57,1.336,15.782c0.616,3.569,1.718,8.315,4.289,10.075c13.88,9.501,19.025,24.537,25.447,38.682
		c0.962,2.12-1.259,6.183-2.855,8.838c-2.056,3.42-6.224,5.949-7.296,9.517c-5.039,16.776-18.546,21.027-33.311,23.676
		c-3.99,0.716-8.434-0.021-12.051,1.441c-4.779,1.931-9.066,5.202-13.345,8.209c-3.88,2.726-7.26,6.187-11.226,8.76
		c-6.96,4.516-14.293,8.455-21.277,12.936c-2.903,1.863-5.215,4.618-7.959,6.759c-13.717,10.703-18.491,10.835-29.276-2.411
		c-8.951-10.994-20.052-15.224-33.494-15.156c-7.256,0.037-14.889-0.985-21.682,0.894c-12.041,3.33-17.933-3.548-23.291-11.687
		c-3.641-5.532-6.781-11.558-8.996-17.773c-0.79-2.215,1.118-6.255,3.021-8.347c2.45-2.694,6.382-3.975,9.236-6.385
		c5.879-4.963,6.969-10.656,2.916-17.73c-5.132-8.959-9.879-18.2-13.864-27.708c-0.956-2.282,1.096-6.563,2.908-9.113
		c4.168-5.862,5.081-9.73-0.522-16.416c-11.597-13.838-16.641-30.629-12.265-48.789c1.061-4.402,5.315-8.101,8.323-11.95
		c2.649-3.388,7.244-6.149,8.115-9.859c2.28-9.716,9.387-13.371,17.261-16.699c4.273-1.806,8.826-3.102,12.799-5.409
		c2.112-1.226,4.937-4.522,4.536-6.186c-1.499-6.226,2.241-9.543,5.302-13.825c3.045-4.259,4.492-9.624,7.223-14.153
		c1.9-3.151,4.785-5.708,7.23-8.53c1.459,2.788,3.768,5.449,4.21,8.39c1.074,7.148,0.695,14.544,2.108,21.598
		c0.618,3.085,3.955,7.496,6.48,7.8c2.48,0.299,6.274-3.353,8.066-6.175c1.921-3.025,2.108-7.125,3.19-10.715
		c0.823-2.731,1.593-5.531,2.866-8.06c2.092-4.157,4.571-8.119,6.887-12.163C1160.246,518.372,1159.453,517.949,1158.66,517.527z"/>
	<path d="M552.898,911.281c2.104-0.564,4.008-1.388,5.965-1.547c12.676-1.028,24.527-4.217,34.946-11.953
		c4.719-3.503,10.072-4.176,13.745,1.207c1.477,2.165,2.052,7.272,0.662,8.654c-5.714,5.682-5.705,12.102-5.093,19.292
		c0.586,6.884,0.126,13.857,0.126,23.104c9.885,1.944,21.056,4.261,32.28,6.289c4.56,0.824,9.225,1.25,13.859,1.441
		c5.31,0.219,9.121,1.756,9.169,7.884c0.041,5.169-1.453,9.206-7.387,9.943c-6.688,0.831-6.239,5.019-5.507,10.217
		c0.648,4.602,0.427,9.512-0.418,14.101c-2.246,12.197-5.311,24.244-7.528,36.446c-2.058,11.327,2.906,19.672,12.382,25.695
		c3.92,2.492,7.762,5.114,11.552,7.801c5.734,4.065,7.253,9.455,4.912,16.068c-2.206,6.234-7.047,8.62-13.004,7.777
		c-8.459-1.198-10.799,3.454-11.523,10.359c-0.03,0.289-0.085,0.577-0.09,0.866c-0.22,12.219,0.945,23.543-12.904,31.946
		c-10.186,6.18-18.886,14.367-30.678,18.799c-9.693,3.643-18.829,10.085-26.645,17.044c-8.464,7.535-16.602,13.975-28.299,15.725
		c-4.168,0.624-8.541,4.463-11.45,7.97c-6.418,7.735-12.032,6.938-18.166-0.285c-8.522-10.035-18.557-18.903-28.629-27.466
		c-6.223-5.291-11.061,0.216-15.814,4.156c-7.504,6.222-15.122,3.95-15.808-5.019c-0.232-3.038,2.177-7.007,4.562-9.347
		c3.681-3.611,8.989-5.63,12.439-9.393c2.404-2.622,3.717-7.025,3.757-10.652c0.016-1.493-4.463-3.325-7.129-4.464
		c-2.084-0.89-4.614-0.687-6.789-1.427c-5.403-1.84-13.323,1.062-15.623-6.708c-3.185-10.759-4.72-21.794,2.904-31.602
		c1.218-1.567,4.106-2.889,6.036-2.672c8.563,0.963,11.27-4.646,15.478-10.632c6.77-9.629,15.303-18.118,23.728-26.445
		c4.139-4.091,6.508-7.831,4.711-13.601c-1.999-6.419-0.152-11.625,4.492-16.536c11.78-12.46,17.334-27.43,15.623-44.57
		c-0.386-3.863-2.44-8.053-4.935-11.105c-4.76-5.823-10.886-10.553-15.478-16.484c-2.862-3.697-4.888-8.647-5.462-13.261
		c-0.304-2.446,2.792-6.171,5.33-7.774c1.41-0.891,5.642,0.667,7.187,2.389c4.238,4.725,7.829,10.049,11.469,15.28
		c1.815,2.609,3.017,5.637,4.77,8.295c5.431,8.233,12.032,16.957,22.681,14.591c10.651-2.366,13.386-13.484,16.336-22.862
		c0.677-2.152,0.13-5.588-1.247-7.334C551.177,932.333,552.226,921.972,552.898,911.281z"/>
	<path d="M1067.836,863.74c1.506,0.195,3.013,0.796,4.311,0.496c17.818-4.119,25.459,9.174,33.923,20.272
		c4.165,5.46,1.82,9.299-5.033,9.691c-3.134,0.179-6.469-0.174-9.461-1.099c-6.22-1.923-12.236-3.649-18.393,0.13
		c-0.898,0.551-2.396,0.745-3.393,0.42c-9.477-3.093-18.333,2.594-26.953,2.413c-22.516-0.471-41.888,11.737-63.626,13.088
		c-7.669,0.476-10.923,4.393-10.686,11.699c0.467,14.371-7.044,22.293-20.262,26.422c-6.786,2.12-11.68,7.194-11.532,14.74
		c0.143,7.309-2.429,12.887-7.521,17.761c-5.106,4.888-5.926,10.214-1.778,16.346c1.731,2.559,3.116,5.695,3.545,8.725
		c1.244,8.781-1.578,11.661-10.232,13.502c-13.197,2.807-23.771-0.055-32.194-11.269c-5.735-7.636-12.682-14.363-19.099-21.486
		c-12.823-14.234-8.674-29.675-2.807-42.172c0.631-1.344,3.072-2.242,4.824-2.591c10.229-2.038,20.205-11.954,21.216-22.725
		c0.778-8.281,0.155-16.694,0.155-24.677c-1.226-0.634-1.69-0.973-2.21-1.128c-6.115-1.823-14.788-1.702-17.864-5.792
		c-8.156-10.842-11.372-24.038-8.193-37.922c0.969-4.231,2.441-8.345,3.624-12.529c5.284-18.693,3.513-36.605-5.839-53.738
		c-1.379-2.526-2.298-5.33-3.215-8.077c-3.028-9.067-1.824-10.835,7.544-11.308c3.484-0.176,6.978-0.186,10.455-0.449
		c14.991-1.132,16.712-0.265,20.894-15.348c0.91-3.283,5.938-7.996,8.49-7.66c3.988,0.525,9.224,4.007,10.867,7.626
		c5.404,11.901,12.601,14.245,22.613,6.359c2.226-1.753,6.283-3.572,8.38-2.695c9.998,4.182,20.198,8.386,29.218,14.277
		c12.152,7.937,14.52,7.938,20.789-4.905c2.796-5.728,5.347-11.643,8.781-16.976c4.868-7.561,10.781-7.933,14.501,0.086
		c6.179,13.319,10.247,27.598,15.827,41.217c5.706,13.926,11.599,28.017,28.19,32.772c1.655,0.474,3.214,1.346,4.752,2.155
		c10.613,5.581,11.247,8.002,4.339,17.725C1069.142,845.055,1063.984,853.048,1067.836,863.74z"/>
	<path d="M1069.039,662.166c-2.23,3.067-4.363,5.792-6.268,8.669c-3.305,4.991-2.168,9.186,0.958,14.336
		c5.426,8.942,10.255,18.461,13.551,28.332c0.85,2.547-4.179,8.496-7.823,10.838c-12.413,7.975-12.178,8.608-6.493,22.005
		c3.633,8.562,5.001,18.299,6.114,27.66c1.492,12.554,1.756,25.254,2.548,37.891c-0.971,0.739-1.942,1.478-2.912,2.216
		c-4.745-3.04-10.124-5.418-14.116-9.242c-12.351-11.833-14.362-28.728-20.315-43.694c-2.778-6.984-5.113-14.224-8.654-20.808
		c-5.105-9.492-15.419-9.916-21.595-0.859c-3.378,4.954-5.455,10.835-7.833,16.42c-4.827,11.335-7.064,11.215-16.879,4.744
		c-9.422-6.212-20.099-10.783-30.721-14.751c-2.964-1.107-8.217,1.731-11.488,4.064c-7.42,5.292-13.567,4.385-15.383-4.465
		c-2.069-10.077-9.062-10.118-16.322-10.467c-7.772-0.374-10.93,5.339-11.947,11.508c-1.442,8.743-6.464,11.658-14.483,11.608
		c-5.81-0.037-11.635,0.368-17.43,0.094c-11.148-0.526-17.214-10.611-11.007-19.996c7.145-10.805,15.813-20.646,24.328-30.465
		c1.521-1.753,5.557-2.023,8.352-1.83c5.469,0.378,10.855,2.017,16.323,2.334c15.785,0.914,15.791,0.757,21.398-13.681
		c0.313-0.807,0.691-1.609,1.161-2.333c13.319-20.502,5.471-25.192-9.844-34.625c-8.879-5.468-13.484-10.94-13.516-21.347
		c-0.026-8.419-4.395-14.254-12.924-17.726c-3.859-1.571-6.739-6.809-8.928-10.979c-7.302-13.912-19.659-21.345-35.227-20.322
		c-1.702,0.112-3.502,0.488-5.027,1.221c-7.242,3.481-7.213,3.54-13.468-1.58c7.229-8.458,13.429-18.237,22.04-24.908
		c5.826-4.513,15.005-4.832,22.793-6.528c1.026-0.223,3.133,2.298,3.982,3.94c1.724,3.335,2.867,6.964,4.36,10.425
		c5.463,12.661,9.267,13.568,22.932,11.753c13.383-1.778,27.13-1.887,40.636-1.182c6.139,0.321,10.146-0.747,13.258-5.573
		c6.748-10.462,14.404-19.706,27.519-22.37c1.336-0.271,2.52-1.398,3.719-2.209c3.972-2.686,8.446-8.209,11.776-7.583
		c9.213,1.731,20.898,3.514,26.258,9.818c11.471,13.489,24.798,16.316,40.693,15.042c1.653-0.132,3.36,0.408,5.143,0.649
		c2.389,9.44,0.858,16.977-8.061,21.653c-6.094,3.195-7.691,8.319-8.449,14.893C1049.268,626.459,1054.901,645.499,1069.039,662.166
		z"/>
	<path d="M1139.852,906.416c2.917,3.46,5.352,5.251,6.27,7.627c3.938,10.188,12.039,14.09,21.956,14
		c8.239-0.074,14.247,3.103,20.309,8.193c2.683,2.253,7.577,2.944,11.327,2.639c7.772-0.634,15.425-2.601,23.177-3.659
		c7.546-1.03,11.71,2.597,13.958,9.896c5.846,18.986,9.805,20.11,26.665,8.489c1.674-1.154,3.231-2.579,5.059-3.389
		c4.496-1.992,9.943-7.151,13.751-1.134c3.393,5.362,3.554,12.842-2.326,17.483c-5.403,4.264-11.583,7.745-17.846,10.656
		c-5.339,2.482-8.108,5.452-8.178,11.681c-0.103,9.147-4.145,16.439-11.588,22.342c-3.536,2.804-5.793,7.6-7.764,11.891
		c-2.283,4.969-3.011,10.687-5.512,15.511c-3.197,6.168-8.74,10.045-15.77,6.609c-6.307-3.082-8.673-0.52-9.863,4.901
		c-1.948,8.87-6.524,15.027-15.356,18.424c-3.058,1.176-5.499,4.854-7.399,7.901c-2.281,3.658-3.25,8.137-5.548,11.78
		c-6.744,10.688-8.061,20.663,1.063,31.005c4.087,4.633,4.302,10.563,0.345,16.115c-4.097,5.747-9.096,4.299-14.775,2.954
		c-9.812-2.324-19.773-4.65-29.782-5.315c-8.167-0.543-14.279,3.607-15.745,12.917c-1.076,6.831-0.296,15.496-10.11,17.014
		c-7.334,1.134-20.395-6.835-23.095-14.517c-1.979-5.63-3.586-11.99-3.017-17.795c1.38-14.067,1.063-27.664-4.072-41.024
		c-2.899-7.543-1.198-11.871,8.238-12.005c8.746-0.124,12.45-8.331,9.232-18.961c-2.013-6.649-4.96-13.062-6.401-19.812
		c-0.533-2.498,1.28-7.339,3.313-8.257c21.176-9.561,20.44-28.443,19.747-46.701c-0.346-9.139-3.658-18.147-5.41-27.256
		c-1.47-7.643,1.372-14.294,8.902-15.621c15.568-2.744,19.985-14.035,23.425-26.762
		C1137.543,912.335,1138.359,910.517,1139.852,906.416z"/>
	<path d="M1281.637,672.981c-4.722-3.554-9.34-6.555-13.306-10.252c-1.542-1.437-1.936-4.399-2.292-6.751
		c-0.888-5.86-0.17-12.32-2.416-17.543c-4.69-10.909-5.704-21.556-3.2-33.087c2.802-12.898,1.516-14.437-10.457-19.158
		c-2.038-0.804-4.147-2.297-5.398-4.057c-3.522-4.953-6.284-10.463-9.968-15.279c-3.677-4.807-8.106-9.039-11.829-13.113
		c3.304-6.846,6.386-13.281,9.513-19.694c2.374-4.869,3.057-8.901-0.394-14.369c-2.885-4.572-1.895-11.417-3.609-16.949
		c-1.389-4.482-4.333-8.468-6.42-12.755c-1.144-2.349-1.943-4.865-2.898-7.305c3.135-0.593,6.683-2.422,9.327-1.541
		c7.335,2.444,14.294,6.016,21.683,9.267c0,2.889,0.142,6.056-0.024,9.207c-0.977,18.587,10.391,26.665,27.922,19.817
		c11.861-4.634,23.579-9.713,35.666-13.663c9.027-2.95,17.637-0.58,26.937,2.348c15.285,4.812,31.668,6.07,47.509,9.22
		c8.931,1.776,18.661,2.602,26.383,6.849c33.049,18.181,65.503,37.445,98.133,56.385c8.121,4.714,8.591,7.757,4.597,20.629
		c-2.427,7.822-7.97,10.929-15.361,9.219c-9-2.082-17.967-4.799-26.49-8.343c-13.003-5.406-12.829-5.802-21.009,5.2
		c-0.676,0.909-1.53,1.685-3.314,3.623c-5.65-5.545-11.096-10.972-16.634-16.305c-6.803-6.552-10.126-6.022-13.958,2.644
		c-2.456,5.554-4.178,11.429-6.362,17.108c-1.919,4.989-5.024,6.004-10.307,4.122c-12.794-4.56-25.701-8.973-38.861-12.242
		c-4.396-1.092-10.889-0.024-14.309,2.704c-5.034,4.016-8.603,2.743-13.979,1.725c-7.597-1.438-16.11-1.626-23.501,0.363
		c-8.701,2.341-10.019,8.425-5.81,16.403c1.218,2.309,3.491,4.505,3.609,6.838c0.149,2.956-0.862,8.303-2.314,8.647
		c-15.019,3.556-19.929,15.573-24.742,27.874C1283.561,671.257,1282.983,671.596,1281.637,672.981z"/>
	<path d="M1107.212,898.606c9.896-3.965,7.719-9.951,3.526-16.099c-9.425-13.82-20.087-25.756-38.995-23.947
		c-0.728-12.35,12.967-29.608,24.349-30.098c2.104-0.091,6.031,4.318,6.33,6.964c1.026,9.096,6.016,11.366,13.827,9.553
		c7.818-1.814,14.999-0.892,22.903,0.977c11.497,2.719,23.346,1.61,31.266-9.677c0.995-1.419,2.218-2.693,3.432-3.941
		c10.699-11.003,18.417-22.464,4.516-37.369c5.288-4.914,10.067-9.13,14.589-13.605c8.74-8.648,18.582-11.27,30.971-8.931
		c15.892,3.001,31.945,1.406,47.135-4.591c7.631-3.013,11.446-1.141,12.949,6.85c0.634,3.369,1.541,7.177,3.636,9.695
		c7.785,9.355,6.937,18.95,3.459,29.788c-3.26,10.158-4.944,20.881-6.638,31.465c-1.629,10.179-6.782,17.378-15.152,23.213
		c-9.957,6.94-10.899,11.794-1.644,19.179c16.698,13.325,16.405,30.049,12.512,48.106c-0.427,1.98-1.885,4.317-3.565,5.348
		c-7.325,4.496-15.02,8.391-22.363,12.859c-5.352,3.257-8.473,3.215-10.988-3.557c-7.739-20.837-8.568-21.14-31.032-18.69
		c-3.452,0.377-6.872,1.799-10.274,1.696c-4.008-0.122-8.109-0.99-11.941-2.236c-5.894-1.917-11.421-5.492-17.412-6.464
		c-10.992-1.784-20.303-4.688-24.073-16.737c-0.603-1.926-3.991-3.984-6.265-4.206c-8.361-0.819-16.802-0.772-25.197-1.304
		c-3.107-0.197-6.171-1.09-9.254-1.666C1107.615,900.321,1107.413,899.463,1107.212,898.606z"/>
	<path d="M631.24,648.87c7.352,0.582,14.58,1.025,21.779,1.754c11.785,1.193,20.985,5.818,28.017,16.367
		c3.048,4.571,10.967,7.376,17.037,8.157c13.383,1.721,24.216,7.812,33.815,16.43c3.092,2.776,7.242,9.607,6.291,10.751
		c-4.365,5.253-9.78,11.239-15.938,12.96c-6.488,1.813-14.364-0.337-21.427-1.771c-17.97-3.648-34.965-1.291-50.092,8.869
		c-12.624,8.479-24.82,9.959-38.351,2.895c-7.114-3.714-14.716-4.149-21.303,1.25c-2.431,1.992-4.737,5.23-5.287,8.231
		c-2.465,13.451-9.498,18.414-23.073,15.459c-12.318-2.682-12.046-2.556-17.483,9.229c-6.16,13.354-16.043,22.228-30.977,25.534
		c-5.295,1.172-10.678,4.327-14.786,7.969c-7.704,6.829-20.733,8.232-28.698,1.364c-1.275-1.1-1.429-5.522-0.283-7.014
		c3.142-4.091,6.732-8.297,11.072-10.93c16.234-9.849,22.144-25.888,25.22-42.879c1.548-8.548,4.766-10.921,12.765-11.45
		c15.49-1.024,28.522-17.634,27.498-32.893c-0.511-7.623-4.183-10.475-11.121-9.727c-9.803,1.056-19.56,2.537-29.34,3.802
		c-3.455,0.447-6.946,1.233-10.378,1.051c-3.208-0.17-6.358-1.416-9.534-2.188c0.89-3.259,0.813-7.389,2.834-9.628
		c9.877-10.942,19.962-21.754,30.698-31.841c5.501-5.169,8.54-9.366,6.77-17.741c-3.374-15.964,3.684-20.927,18.937-15.483
		c6.683,2.385,13.948,3.24,21.009,4.434c4.856,0.821,9.89,0.65,14.716,1.585c14.06,2.724,14.554,3.792,9.932,17.19
		c-1.979,5.736-0.914,9.375,5.438,12.319C608.052,648.047,618.955,652.08,631.24,648.87z"/>
	<path d="M429.713,976.763c-1.07-3.02-2.225-5.857-3.078-8.782c-1.785-6.121-2.941-12.466-5.192-18.402
		c-6.071-16.005-15.552-18.885-30.252-10.752c-17.665,9.774-35.517,19.279-53.758,27.91c-7.541,3.568-16.302,4.561-27.02,7.387
		c5.936-14.319,3.162-24.582-3.694-34.507c-4.153-6.011-2.635-12.027,2.74-17.199c7.911-7.612,16.752-12.792,27.753-15.279
		c13.528-3.057,26.821-7.401,39.892-12.091c4.249-1.524,9.203-5.171,10.822-9.09c3.501-8.478,9.551-13.341,17.041-17.655
		c8.891-5.121,9.227-7.393,3.018-15.037c-4.161-5.123-1.45-7.538,3.237-8.566c7.293-1.599,11.998-4.641,14.332-12.618
		c1.054-3.603,7.065-6.303,11.344-8.311c10.226-4.8,20.963-8.193,25.732-20.384c2.271-5.806,8.446-3.893,10.138,0.354
		c3.003,7.534,4.577,15.774,5.689,23.864c0.558,4.057-1.217,8.433-2.43,15.568c10.022-4.152,18.316-6.954,26.017-10.91
		c17.047-8.756,32.235-3.602,46.118,6.391c10.721,7.717,9.376,21.706-0.278,30.726c-7.24,6.764-12.899,15.215-19.294,22.888
		c-4.249,5.099-7.929,10.896-12.939,15.102c-27.349,22.956-55.028,45.52-82.622,68.185
		C432.426,976.051,431.488,976.136,429.713,976.763z"/>
	<path d="M1266.117,879.021c1.397-1.709,2.217-3.514,3.611-4.292c15.3-8.535,18.458-23.453,21.201-38.879
		c1.671-9.398,3.851-18.799,6.949-27.805c1.198-3.483,5.199-7.459,8.608-8.246c2.543-0.586,6.641,3.134,9.257,5.731
		c9.361,9.293,18.288,18.015,33.464,16.934c17.464-1.244,24.594,4.149,26.197,18.23c0.5,4.394-1.687,9.384-3.599,13.676
		c-1.743,3.911-5.177,7.042-7.16,10.881c-3.414,6.611-0.321,11.48,7,11.509c2.9,0.012,5.809-0.281,8.702-0.559
		c10.997-1.057,14.008,1.023,15.192,12.203c1.65,15.583,2.75,31.224,4.03,46.846c0.091,1.108,0.149,2.707-0.496,3.313
		c-9.613,9.016-15.082,21.438-30.356,25.792c-11.126,3.172-19.609,8.41-31.287,1.406c-6.14-3.682-12.913,0.474-15.557,8.189
		c-0.374,1.091-0.982,2.102-1.464,3.158c-11.502,25.199-28.61,33.043-55.927,25.29c-2.222-0.631-5.65-3.599-5.441-5.033
		c0.786-5.396,1.551-14.203,4.637-15.314c23.237-8.362,26.746-25.262,23.01-46.513c-0.946-5.377-0.516-11.019-0.494-16.539
		c0.053-13.621-2.145-26.158-15.252-33.857c-0.965-0.567-1.7-1.584-2.422-2.488C1267.803,881.759,1267.242,880.744,1266.117,879.021
		z"/>
	<path d="M692.261,828.285c1.129-5.439,2.111-10.806,3.375-16.106c1.682-7.051,0.038-12.496-6.753-15.964
		c-4.893-2.499-10.186-4.601-14.342-8.038c-3.694-3.055-7.222-7.365-8.521-11.795c-0.614-2.096,3.626-6.516,6.578-8.587
		c9.498-6.665,19.136-13.231,29.241-18.908c17.415-9.783,27.075-26.728,39.004-41.472c2.163-2.674,1.399-9.809-0.669-13.324
		c-3.263-5.544-8.775-9.765-14.166-15.418c2.208-2.054,4.531-4.378,7.023-6.504c7.499-6.398,15.314-12.455,22.477-19.205
		c2.783-2.623,4.996-6.51,6.025-10.221c5.608-20.222,8.14-22.265,29.006-21.315c2.556,0.116,5.102,0.424,8.952,0.754
		c-5.772,15.966-6.439,32.887-20.788,44.549c-3.326,2.703-4.074,10.575-3.23,15.602c0.457,2.72,6.626,5.959,10.487,6.356
		c12.017,1.237,24.177,0.039,35.171,7.471c3.014,2.038,9.46,1.223,13.26-0.561c8.843-4.15,17.019-9.711,25.493-14.655
		c5.989-3.495,12.105-6.78,18.011-10.408c5.125-3.149,10.05-6.624,15.025-10.013c0.946-0.645,1.58-1.979,2.576-2.283
		c11.828-3.613,17.329,7.021,25.155,11.944c2.213,1.392,2.861,7.666,1.951,11.097c-1.682,6.342-4.543,12.54-7.931,18.189
		c-1.595,2.66-5.592,5.55-8.422,5.473c-7.148-0.194-14.487-1.259-21.305-3.393c-6.706-2.099-10.877-1.83-15.375,4.565
		c-7.419,10.547-16.187,20.151-24.447,30.103c-10.521,12.676-32.799,12.67-42.315-0.486c-4.257-5.885-8.945-8.418-16.088-7.44
		c-9.777,1.338-19.659,1.934-29.414,3.394c-7.793,1.166-9.068,5.06-4.26,11.454c1.214,1.614,2.492,3.37,4.144,4.436
		c14.844,9.586,18.319,26.239,24.949,40.728c4.203,9.185-2.142,16.709-13.445,16.258c-6.219-0.248-12.516-2.312-18.474-4.418
		c-7.651-2.705-13.628-1.008-18.589,5.069c-2.567,3.145-5.505,6.155-7.322,9.712C717.465,828.324,706.334,830.968,692.261,828.285z"
		/>
	<path d="M1022.099,1033.322c-3.248-0.624-7.199-1.778-11.214-2.077c-10.266-0.765-20.597-0.782-30.829-1.813
		c-6.989-0.705-13.989-2.156-20.738-4.117c-6.32-1.837-12.594-4.285-18.33-7.47c-2.59-1.438-4.45-5.092-5.535-8.135
		c-1.991-5.58-3.601-11.386-4.487-17.231c-0.435-2.873,0.181-6.795,1.926-8.938c4.914-6.035,8.589-12.047,8.313-20.297
		c-0.22-6.575,3.87-10.334,10.237-12.279c13.996-4.275,21.526-14.368,21.129-28.703c-0.165-5.982,2.558-8.258,7.74-9.454
		c11.485-2.652,22.869-5.756,34.391-8.225c7.317-1.568,11.557,2.823,13.682,9.178c4.832,14.446,9.388,28.985,13.995,43.506
		c0.692,2.183,1.943,4.704,1.426,6.673c-3.944,15.028,1.004,28.709,6.122,42.308c2.828,7.515,1.53,12.49-6.128,16.222
		c-5.613,2.735-10.401,7.123-15.764,10.44C1026.736,1033.71,1024.623,1033.192,1022.099,1033.322z"/>
	<path d="M806.293,613.948c-13.673,2.182-24.817,3.423-35.643,5.998c-3.514,0.836-6.415,4.96-9.194,7.953
		c-2.672,2.878-5.459,9.202-7.089,8.853c-5.846-1.252-14.272-3.321-16.182-7.569c-4.922-10.947-7.248-23.144-9.848-35.008
		c-1.058-4.83,1.765-7.885,7.322-6.172c3.596,1.109,7.254,2.152,10.66,3.713c11.917,5.463,25.484,3.056,35.288-5.813
		c2.07-1.873,6.178-3.342,8.647-2.617c12.458,3.659,24.746,7.933,36.959,12.363c4.793,1.739,9.08,4.553,12.4-2.18
		c0.607-1.232,3.511-2.068,5.235-1.896c11.688,1.168,22.309,4.094,27.165,16.715c2.863,7.441,5.247,14.961,15.74,16.12
		c5.72,0.632,10.291,16.752,6.972,22.221c-5.759,9.49-10.793,19.801-23.599,22.169c-3.197,0.591-6,3.364-8.958,5.176
		c-10.32,6.323-20.49,12.914-31.053,18.801c-2.291,1.277-6.936,1.28-8.857-0.223c-9.302-7.276-19.982-6.807-30.747-7.053
		c-4.906-0.112-12.264,1.445-12.665-5.576c-0.25-4.386,4.015-9.183,6.675-13.538c2.655-4.346,6.928-7.985,8.574-12.614
		C798.517,641.322,801.916,628.512,806.293,613.948z"/>
	<path d="M112.233,1373.202c0.649-4.508,0.855-7.675,1.593-10.713c1.716-7.068,2.916-13.599-5.149-18.196
		c-1.406-0.801-1.999-6.713-0.768-7.819c5.683-5.104,11.608-10.553,18.463-13.577c8.098-3.572,17.232-4.812,25.933-7.001
		c5.527-1.391,8.647-4.229,10.027-10.367c1.918-8.529,5.132-16.85,8.562-24.933c3.154-7.433,7.51-14.347,10.986-21.657
		c2.241-4.712,5.453-6.59,9.362-2.872c4.594,4.37,8.397,9.59,12.37,14.579c1.409,1.769,2.356,3.919,3.434,5.936
		c3.492,6.532,7.685,12.813,10.212,19.703c2.611,7.118,4.495,13.507,13.756,14.448c5.527,0.561,5.3,5.192,2.272,8.369
		c-4.352,4.565-9.177,8.865-14.411,12.368c-10.346,6.925-20.634,13.198-26.304,25.463c-4.958,10.725-14.332,15.362-27.019,14.812
		c-14.442-0.626-28.976,0.896-43.471,1.442C119.26,1373.293,116.43,1373.202,112.233,1373.202z"/>
	<path d="M1027.997,900.821c14.47-0.784,27.227-1.48,39.984-2.159c1.442-0.077,3.112,0.407,4.3-0.158
		c12.99-6.175,23.042,0.801,33.73,6.668c3.675,2.017,8.868,1.217,13.348,1.839c4.065,0.565,9.081,0.151,11.787,2.42
		c1.622,1.36-0.046,7.113-0.824,10.766c-2.021,9.492-8.086,15.153-17.569,16.915c-9.745,1.81-12.694,7.992-11.689,17.067
		c0.607,5.48,0.423,11.139,1.764,16.421c1.528,6.019-1.421,7.573-6.09,7.547c-14.794-0.083-29.598-0.246-44.365-1.013
		c-1.957-0.102-5.715-4.591-5.267-5.848c4.263-11.963-3.763-21.242-6.273-31.644c-2.064-8.552-4.462-17.035-7.045-25.446
		C1032.623,910.398,1030.646,906.849,1027.997,900.821z"/>
	<path d="M1073.201,771.229c10.025,0.449,17.77,0.84,25.518,1.133c11.547,0.438,23.128,0.455,34.626,1.448
		c2.975,0.257,5.964,3.179,8.479,5.404c9.063,8.016,15.348,19.158,30.263,19.503c8.108,0.188,11.533,12.972,6.497,19.8
		c-3.952,5.359-8.166,10.534-12.433,15.65c-7.117,8.531-16.079,9.617-26.566,7.466c-7.13-1.463-14.786-1.861-21.995-0.986
		c-6.295,0.764-9.708,0.919-10.519-6.738c-0.73-6.905-4.196-11.811-12.919-9.841c-9.821,2.217-14.571-0.381-16.329-10.733
		C1075.371,798.879,1074.547,784.146,1073.201,771.229z"/>
	<path d="M1455.75,755.695c-15.898,0.015-22.488-5.414-25.72-21.183c-0.116-0.566-0.179-1.181-0.45-1.673
		c-7.392-13.428-6.039-25.105,5.993-35.522c2.762-2.391,4.286-7.036,4.923-10.885c1.495-9.026,7.961-10.144,13.988-7.588
		c10.024,4.252,19.498,9.987,28.677,15.913c2.308,1.49,4.308,6.571,3.555,9.162c-4.093,14.083-8.573,28.11-13.999,41.726
		C1469.993,752.48,1463.438,755.75,1455.75,755.695z"/>
	<path d="M435.811,1042.781c4.187-1.442,8.28-3.363,12.584-4.214c6.477-1.28,10.159-5.62,10.18-11.279
		c0.015-3.835-2.85-8.348-5.698-11.357c-3.522-3.72-8.516-6-12.597-9.249c-10.216-8.132-11.203-21.22-1.335-29.621
		c13.242-11.273,27.234-21.671,40.993-32.329c4.767-3.692,8.204-2.934,8.531,3.68c0.631,12.766,0.905,25.376-4.839,37.526
		c-2.02,4.272-2.205,9.967-1.603,14.81c1.45,11.648,2.654,22.73-9.576,29.934c-1.908,1.124-3.3,3.25-4.696,5.091
		C461.789,1043.642,446.656,1048.165,435.811,1042.781z"/>
	<path d="M1415.969,663.66c1.161,0,2.325-0.044,3.484,0.006c20.788,0.899,23.863,5.615,15.784,24.996
		c-1.522,3.651-3.806,7.379-6.712,9.989c-9.588,8.609-9.064,18.618-5.144,29.386c0.594,1.63,1.81,3.223,1.819,4.838
		c0.022,4.102-0.477,8.207-0.768,12.31c-3.328-1.286-6.581-2.844-10.002-3.795c-4.867-1.352-9.851-3.133-14.799-3.18
		c-11.872-0.114-14.174-2.055-13.17-13.406c0.902-10.207,4.375-20.785-5.852-29.041c-1.161-0.937-0.148-6.385,1.453-8.58
		c5.109-7.007,10.209-14.395,16.817-19.8c4.184-3.423,11.046-3.576,16.706-5.196C1415.712,662.678,1415.84,663.169,1415.969,663.66z
		"/>
	<path d="M717.522,674.977c-11.104-5.408-25.488,0.304-34.414-11.841c-4.424-6.019-5.443-11.754-0.609-17.315
		c8.106-9.325,16.563-18.378,25.35-27.061c2.504-2.475,6.54-3.669,10.086-4.772c10.139-3.154,12.997-1.706,13.698,8.643
		c0.722,10.675,7.459,14.84,16.016,18.105c9.742,3.718,10.3,6.065,2.293,12.527c-7.874,6.355-16.233,12.122-24.527,17.938
		C723.112,672.815,720.286,673.684,717.522,674.977z"/>
	<path d="M1517.697,612.952c8.059,0.315,12.96,9.122,8.366,15.593c-4.993,7.035-7.784,12.757-0.286,20.433
		c4.452,4.558-0.167,11.397-8.03,12.496c-6.887,0.962-13.964,0.744-20.768,2.037c-2.216,0.421-4.385,3.689-5.614,6.137
		c-2.245,4.472-3.207,9.668-5.88,13.803c-1.051,1.626-5.692,2.378-7.95,1.534c-9.951-3.721-19.552-8.362-29.438-12.273
		c-4.839-1.914-5.36-4.716-1.75-7.549c13.017-10.213,23.893-23.593,42.628-24.863c14.619-0.991,15.567-2.723,18.027-17.251
		C1508.12,616.445,1511.658,613.447,1517.697,612.952z"/>
	<path d="M556.905,950.427c-4.321,5.259-8.107,13.498-14.229,15.976c-3.772,1.527-12.425-4.59-16.544-9.315
		c-6.76-7.754-11.426-17.297-17.345-25.83c-3.39-4.887-3.856-8.487,1.518-12.379c5.142-3.724,9.643-8.326,14.46-12.503
		c8.756-7.592,18.93-4.223,21.757,7.339c0.748,3.061,0.315,6.418,1.119,9.455c1.68,6.347,3.773,12.589,5.804,18.839
		C554.15,944.18,555.172,946.248,556.905,950.427z"/>
	<path d="M1048.699,983.14c17.739,0,35.012-0.183,52.277,0.118c4.836,0.084,7.046,3.325,6.078,8.417
		c-1.241,6.532-2.024,13.158-3.43,19.652c-2.381,10.997-15.997,17.113-26.38,13.099
		C1058.387,1017.134,1050.773,1002.628,1048.699,983.14z"/>
	<path d="M487.29,1028.959c-1.462-23.632-2.83-45.66,10.054-65.47c11.346,3.389,18.323,13.546,17.001,25.144
		c-1.765,15.482-9.493,27.709-20.964,37.786C492.068,1027.571,490.002,1027.865,487.29,1028.959z"/>
	<path d="M780.192,577.103c-2.427,2.787-4.861,7.224-8.608,9.541c-7.816,4.833-16.467,8.009-24.123-0.458
		c-1.396-1.544-2.008-5.289-1.127-7.134c3.56-7.459,7.255-14.997,12.073-21.66c3.138-4.34,13.839-0.682,17.348,5.81
		C777.625,566.665,778.245,570.802,780.192,577.103z"/>
</g>
</svg>
