<svg preserveAspectRatio="xMidYMid meet" width="100%" height="100%" overflow="visible" style="display: block;" viewBox="0 0 168 48" fill="none" xmlns="http://www.w3.org/2000/svg">
<g id="Ebene_1" clip-path="url(#clip0_0_263)">
<path id="Vector" d="M96.2 14.7107H95.29L94.49 20.2166H95.4C97.37 20.2166 99.3 20.2166 99.69 17.5218C100.11 14.7424 98.3 14.7107 96.2 14.7107ZM73.19 14.9115C69.95 14.9115 67.29 17.6909 67.29 20.7345C67.29 24.539 69.95 27.3184 73.19 27.3184C76.43 27.3184 79.09 24.539 79.09 20.7345C79.09 17.6909 76.43 14.9115 73.19 14.9115Z" fill="var(--fill-0, white)"/>
<path id="Vector_2" d="M150.84 18.251L152.17 18.6843C154.94 19.5931 156.96 21.1466 156.41 24.7081C156.08 26.9062 155.25 29.1572 153.36 30.6473C151.51 32.1057 149.23 32.7292 147.13 32.7292C144.6 32.7292 142.15 31.852 140.15 30.214L143.17 25.5852C144.36 26.8428 145.8 27.8679 147.66 27.8679C148.93 27.8679 150.4 27.1915 150.62 25.6486C150.87 24.0423 148.82 23.4822 147.71 23.1334C144.44 22.1083 142.34 21.1783 143 16.8983C143.66 12.4174 147.13 9.49009 151.31 9.49009C153.41 9.49009 155.88 10.1876 157.57 11.3078L154.75 15.7569C153.86 14.8798 152.7 14.288 151.37 14.288C150.37 14.288 148.93 14.9009 148.77 16.1268C148.58 17.4161 149.96 17.9128 150.85 18.2299L150.84 18.251ZM135.47 30.2774C133.45 32.0951 130.62 32.7398 128.19 32.7398C125.76 32.7398 123.09 32.0951 121.63 30.2774C119.89 28.1427 120.19 25.3316 120.6 22.4888L122.46 10.0819H127.89L126.17 21.6962C125.73 24.5601 125.45 27.6988 128.94 27.6988C132.43 27.6988 133.09 24.5707 133.54 21.6962L135.26 10.0819H140.69L138.84 22.4888C138.43 25.321 137.9 28.1321 135.49 30.2774H135.47ZM117.5 32.148H105.56L108.86 10.0819H114.29L111.71 27.2867H118.22L117.5 32.148ZM105.37 17.3421C104.59 22.5522 101.6 24.8349 96.87 24.8349H93.8L92.69 32.148H87.26L90.56 10.0819H98.87C103.36 10.0819 106.15 12.2801 105.38 17.3421H105.37ZM73.19 32.8771C66.49 32.8771 61.64 27.8468 61.64 20.7028C61.64 14.0238 67.18 9.35271 73.19 9.35271C79.2 9.35271 84.74 14.0343 84.74 20.7028C84.74 27.8468 79.89 32.8771 73.19 32.8771ZM60.93 32.148H48.99V10.0819H54.42V27.2867H60.93V32.148ZM45.64 14.9432H39.19V18.6314H45.31V23.4927H39.19V27.2972H45.64V32.1585H33.76V10.0819H45.64V14.9432ZM23.49 32.148H19.28L10.5 10.0819H16.4L21.44 23.4822L26.51 10.0819H32.41L23.49 32.148ZM165.33 0H2.67C2.56 0 0 0.0422721 0 2.82166V38.8058C0 38.9221 0.04 41.6275 2.67 41.6275H16.31L16.36 41.6909L21.16 48L25.96 41.6909L26.01 41.6275H165.33C165.44 41.6275 168 41.5852 168 38.8058V2.82166C168 2.70542 167.96 0 165.33 0Z" fill="var(--fill-0, white)"/>
</g>
<defs>
<clipPath id="clip0_0_263">
<rect width="168" height="48" fill="white"/>
</clipPath>
</defs>
</svg>
