<svg id="Layer_1" enable-background="new 0 0 100 100" viewBox="0 0 100 100" xmlns="http://www.w3.org/2000/svg"><path clip-rule="evenodd" d="m37.7100716 4.126863c25.3175964-6.7828693 51.3800621 8.2651596 58.163044 33.5831909 6.7829895 25.3180275-8.2651596 51.3800583-33.5831871 58.1630478-25.3180275 6.7829819-51.3800621-8.2651672-58.1630478-33.5831947s8.2651596-51.3800569 33.5831909-58.163044zm-27.9952765 26.0544591s5.2992802-1.7087364 6.7682486-1.8132896c.7858982-.0569077 1.2595367 1.1989841 2.0460987 1.1821308 1.1742496-.02742 3.9157257-.684164 5.000391-1.3396606.8529644-.5166054.7715302-2.0357838 1.4969273-2.5950279.726469-.5586185 2.274025-1.0390625 2.8594208-.7660713.5829659.2745571.0679359 1.8136215.6462746 2.4122715.7351723.7642288 2.6569519 1.943121 3.7683697 2.1765823.9767113.2047462 2.2110138-1.4044781 2.8978691-.776371.6850471.6249142 1.5695724 3.0082188 1.2141304 4.5318279-.4325371 1.8571663-2.6708107 5.3649788-3.812088 6.6009064-.7130184.7726822-2.3479462.0291061-3.0411701.8147659-1.2471027 1.4178429-3.0343609 6.223278-4.4345779 7.6802864-.9510803.9900894-3.0270309.3930244-3.9754524 1.0650711-.9313278.6610527-1.5544796 1.9876366-1.7102814 2.9658928-.1565571.9756927.1765633 2.1439438.7767811 2.8993988.599165.75494 1.9742699 1.4601974 2.8225689 1.6297455.7669754.1557732 1.5202427-.835289 2.2672234-.6074142 1.1736717.359581 2.9445381 2.6342316 4.7794876 2.761879 2.0013523.1378288 5.4451504-1.9490242 7.2274189-1.936306 1.3357773.0088577 2.5068893 1.7721443 3.469799 2.0041924.7775307.1849442 1.5555496-.8639679 2.316597-.6206398 1.2607193.4011688 3.8262825 2.67239 5.2491188 3.0300865 1.1002769.2768135 2.326004-.9752579 3.2910728-.8817139.9544487.0909081 1.9768944.82481 2.4933243 1.4381981.497467.593792.8075066 1.4984169.6012115 2.244072-.2905273 1.0490723-2.0894279 2.8379135-2.3351479 4.0442657-.2205544 1.081543 1.0534935 2.1128311.8577194 3.2015076-.2032013 1.1326904-1.8485451 2.5520554-2.0761681 3.5970078-.1945419.89534 1.0282936 1.796875.7132835 2.6623917-.6440887 1.7638702-4.0768433 5.6292877-4.5792198 7.929512-.4297371 1.9734802 1.6824722 4.7814255 1.569603 5.8586655-.0803185.768692-1.4847183.7562485-2.2458191.6016769-.8485413-.1769028-2.4400864-.6284637-2.8504181-1.6480408-1.2071991-3.007431-2.3098907-12.8888474-4.3945274-16.402916-1.5891304-2.6817627-6.5663033-3.2049103-8.1015148-4.6785278-1.0364723-.9944458-1.1042023-3.1656799-1.1151619-4.1624374-.0077-.7012177.9606304-1.2002487 1.0504932-1.8206062.0894241-.6220665-.0186558-1.4692497-.5104828-1.9054146-.8709545-.7726593-3.3456936-2.4244423-4.7139759-2.7218323-1.1787834-.2557793-2.3640175 1.3585854-3.4959679.9366074-2.4246521-.9087715-9.1010962-4.8834305-11.0623379-6.3873634-.7233181-.5561333-.1234646-1.9423294-.7077818-2.6418533-.5985613-.7185135-2.2601986-.8513412-2.8848019-1.6671524-.6258683-.8136253-1.0148969-2.1735077-.8634553-3.2229156.1516919-1.0484695 1.7161937-1.8892212 1.7711253-3.0699844.0652828-1.3710022-1.0559387-4.3236961-1.3819146-5.1581078-.0720835-.1837158-.5700073.1527138-.5700073.1527138.739821-2.6218452 1.7153153-5.1658859 2.9072671-7.5986443zm80.975131.4688225s-3.991272 1.4735432-5.3612595 1.4363422c-1.0997772-.0291023-2.2722473-1.5687637-2.8594055-1.6510162-.4426804-.0615654-.9594803.8222523-.6702957 1.160881.4356232.509758 2.4822998 1.6496658 3.2856598 1.8971329.5111313.1566315 1.0249939-.5197105 1.5470123-.4144592.582962.1209221 2.0674286.3844261 1.9509125 1.1271667-.1591187 1.0275841-2.1036682 4.1156998-2.9099121 5.0422668-.4370651.5021095-1.2888107.6955528-1.9292908.5168762-.9094086-.2538643-2.8611221-1.3908653-3.5335388-2.0402565-.4583054-.4442368-.0245438-1.422863-.4972229-1.8559189-.7634964-.7026711-3.2181473-2.2865372-4.085495-2.3596878-.7377167-.0602684-1.4281921 1.315464-1.1108551 1.9263992.3171005.6101112 2.4223862 1.1188278 3.0131226 1.739769.4715576.4937172.0194092 1.5266647.530365 1.9796448.8951263.7945404 3.4361343 2.4823914 4.8299255 2.7893448 1.1906891.2626534 2.8254623-1.2371178 3.5344162-.9469109.7090225.2910881 1.0161285 1.8129044.7219467 2.6947136-.5311356 1.5744705-3.5325623 4.5926399-3.9049911 6.7592506-.364624 2.1242981 1.7567902 4.5774918 1.6729507 6.2444229-.0729904 1.4480705-1.9207916 2.7332878-2.1745911 3.7661934-.2004471.8118629.8962021 1.6246414.649498 2.4242859-.3880463 1.2654228-2.0516052 4.1876717-2.9817047 5.1640434-.6184158.6512909-1.8135834.7849274-2.5999222.6965408-.7867889-.0864258-1.6865082-.5294571-2.1146469-1.2195587-.5247726-.8425293-.4403763-2.9511337-1.026207-3.8304024-.5336685-.7971649-1.981926-.8435745-2.493782-1.4399033-.4795074-.5574379-.614418-1.5355186-.5710678-2.1315269.0402145-.5530968.8480301-.8865852.8346329-1.4417763-.0231705-.8443108-.347168-2.7466583-.9683838-3.6145782-.6216049-.8659935-2.1672897-.818615-2.7675018-1.59795-.5980606-.7780952-.1821136-2.2704773-.8234253-3.0735016-.6398544-.8044014-2.1527786-1.5495491-3.0195007-1.7434502-.7345276-.1644592-1.6736145.2389526-2.1793175.5838661-.4699402.317955-.360508 1.1940346-.8516121 1.4774132-.6787682.3885345-2.1350822 1.1207504-3.2108994.8602371-1.3570366-.3305664-3.8626022-1.470047-4.9247513-2.8435402-1.060173-1.3731117-1.679409-3.6673431-1.4438896-5.3894348.2352943-1.7229233 2.4524307-3.8450813 2.8548889-4.9444122.1946182-.5331955-.7130127-1.2823105-.4414444-1.6477203.2685585-.3664284 1.5415573-.0627289 2.0581551-.5513992.6401482-.6077423.8129349-2.4035416 1.7835999-3.0915947.988739-.6993103 3.3839149-1.1809559 4.1419067-1.109663.5270958.0490093.0496902 1.1481457.4112625 1.5350666.4418449.4715004 1.3808746 1.3685951 2.239296 1.2922478 1.7666931-.1577911 6.7764587-1.5301437 8.3657303-2.2412758.7080154-.3168068 1.0394058-1.4216423 1.1639481-2.0183754.1111298-.5272846.1176987-1.489315-.4176636-1.5589657-.7003098-.0913143-3.0952148 1.0770855-3.7904358 1.015501-.4759979-.0425797.0998383-1.3034382-.3719482-1.3883171-.5508957-.1002502-1.9548721 1.0358772-2.9395905.78755-1.2765579-.3237915-3.7671432-2.5774956-4.7300377-2.7311134-.6873589-.1112442-.4681587 1.4204025-1.0455017 1.8119621-.6241989.4214687-2.0178947.0906563-2.7006226.7235279-.8193321.7581768-1.2523727 3.0333176-2.2122459 3.8301353-.9417114.7827225-2.8522644 1.1921501-3.5497017.951004-.699398-.2415352-.7052536-1.7004929-.641243-2.3934841.0625534-.6779709.462162-1.3813114 1.0209007-1.770607.5865631-.4049892 2.205246-.0978661 2.4985504-.6693916.2934036-.5706367-.9340897-1.8275833-.7395592-2.7604675.2194977-1.0547409 1.8368797-2.5178185 2.0583267-3.5648422.1948051-.9182549-1.0159187-1.8257713-.7280884-2.7176514.4807434-1.4997025 2.3900642-5.0575151 3.6201096-6.2696981.9236946-.9114189 2.5774422-1.1596851 3.7596283-1.007246 1.1821938.1524363 2.0564461 1.8249283 3.3344002 1.9252758 1.3567276.107502 3.7969666-.724597 4.7937469-1.2842989.6967392-.3896933 1.1962814-2.0718489 1.1962814-2.0718489 7.4308929 4.4658098 13.5859299 11.0686903 17.4505844 19.2263565zm-61.8024425-14.4144936c.2592201.315567 2.0530109-.8573103 2.8994026-.776782.8372707.0802307 1.7347164.7333021 2.186285 1.2616377.4278221.5045185.5630531 1.3608799.5136795 1.9173431-.0504112.5457611-.768898.8781834-.8214569 1.4226971-.0551338.5451965.1634026 1.3984623.4956207 1.8499508.3296585.452177 1.0417328 1.2189217 1.4876175.8589478.6179581-.4993706 1.4170113-3.0912418 2.2240829-3.8506279.6573143-.6187325 2.0083275-.0341511 2.6162949-.7009354 1.0099487-1.1082897 2.9607849-4.5867157 3.43396-5.9473095.2514648-.7203617.1558456-2.063798-.5930176-2.2134876-5.1933479-1.0505419-10.5717278 1.4622936-13.0869465 3.5061407-.7741241.6299191-1.612133 2.3561144-1.3554859 2.67237z" fill-rule="evenodd"/></svg>